<?xml version="1.0" encoding="utf-8"?>
<!-- Generator: Adobe Illustrator 24.0.0, SVG Export Plug-In . SVG Version: 6.00 Build 0)  -->
<svg version="1.1" id="Element" xmlns="http://www.w3.org/2000/svg" xmlns:xlink="http://www.w3.org/1999/xlink" x="0px" y="0px"
	 viewBox="0 0 1000 1000" style="enable-background:new 0 0 1000 1000;" xml:space="preserve">
<style type="text/css">
	.st0{fill:#00FFFF;}
	.st1{fill:#8B4513;stroke:#000000;stroke-width:2.7604;stroke-miterlimit:10;}
	.st2{fill:#8B4513;stroke:#000000;stroke-width:2.4964;stroke-miterlimit:10;}
	.st3{fill:#A34607;stroke:#000000;stroke-width:2.556;stroke-miterlimit:10;}
	.st4{fill:url(#SVGID_1_);stroke:#000000;stroke-width:3.3048;stroke-miterlimit:10;}
</style>
<g>
	<g>
		<path class="st0" d="M526.4,668.6c0,0.4,0.2,0.9,0.5,1.3h-0.5V668.6z"/>
		<path d="M526.4,668.6v1.3h0.5C526.6,669.5,526.4,669.1,526.4,668.6L526.4,668.6z"/>
	</g>
	<g>
		<path class="st0" d="M526.6,836.1c-70.6,0-136.9-2.5-186.8-7.2c-72-6.7-76-14.6-76.2-15.9h526c-0.2,1.3-4.2,9.2-76.2,15.9
			C663.6,833.6,597.2,836.1,526.6,836.1z"/>
		<path d="M786.4,814.5c-4.6,2.7-20.7,8.4-76,13.4c-49.5,4.4-114.7,6.9-183.7,6.9s-134.2-2.4-183.7-6.9c-55.3-5-71.4-10.7-76-13.4
			H786.4 M791,811.7H262.3v1.3c0,13.5,118.4,24.5,264.4,24.5S791,826.5,791,813V811.7L791,811.7z"/>
	</g>
	<g>
		<path class="st0" d="M526.4,669.9c0.3-0.4,0.5-0.9,0.5-1.3v1.3H526.4z"/>
		<path d="M526.9,668.6c0,0.4-0.2,0.9-0.5,1.3h0.5V668.6L526.9,668.6z"/>
	</g>
	<path class="st1" d="M791,813c0,13.5-118.4,24.5-264.4,24.5s-264.4-11-264.4-24.5c0-0.4,0.1-0.9,0.4-1.3
		c7.2-12.9,122.7-23.2,264-23.2s256.8,10.3,264,23.2C790.9,812.1,791,812.6,791,813z"/>
	<path class="st2" d="M551.8,455.4h-50.4l-23.3,362.8L516,822c7.7,0.8,15.5,0.7,23.2,0l35.9-3.7L551.8,455.4z"/>
	<path class="st3" d="M791,813v132.6c0,0.4-0.1,0.7-0.4,1.1c-7.2,11.1-122.7,19.9-264,19.9s-256.8-8.8-264-19.9
		c-0.2-0.4-0.4-0.7-0.4-1.1V813c0,11.6,118.4,21,264.4,21S791,824.6,791,813z"/>
	
		<radialGradient id="SVGID_1_" cx="526.6393" cy="366.8419" r="333.8419" fx="672.9566" fy="133.9948" gradientUnits="userSpaceOnUse">
		<stop  offset="0" style="stop-color:#FFFFFF"/>
		<stop  offset="5.794332e-02" style="stop-color:#F9FBFD"/>
		<stop  offset="0.4643" style="stop-color:#D3E1EF"/>
		<stop  offset="0.7907" style="stop-color:#BCD1E7"/>
		<stop  offset="0.9944" style="stop-color:#B3CBE4"/>
	</radialGradient>
	<circle class="st4" cx="526.6" cy="366.8" r="333.8"/>
</g>
</svg>
