<?xml version="1.0" encoding="utf-8"?>
<!-- Generator: Adobe Illustrator 24.0.0, SVG Export Plug-In . SVG Version: 6.00 Build 0)  -->
<svg version="1.1" id="Layer_1" xmlns="http://www.w3.org/2000/svg" xmlns:xlink="http://www.w3.org/1999/xlink" x="0px" y="0px"
	 viewBox="0 0 1000 1000" style="enable-background:new 0 0 1000 1000;" xml:space="preserve">
<style type="text/css">
	.st0{display:none;}
	.st1{display:inline;fill:#7DA3C9;}
	.st2{display:inline;}
	.st3{fill:#721705;}
	.st4{fill:#EF3E00;}
	.st5{fill:#B72908;}
	.st6{fill:#C1E7E8;}
	.st7{fill:#F3A724;}
	.st8{opacity:0.2;}
	.st9{fill:#393994;}
</style>
<g class="st0">
	<rect x="0.5" y="0.5" class="st1" width="999" height="999"/>
	<path class="st2" d="M999,1v998H1V1H999 M1000,0H0v1000h1000V0L1000,0z"/>
</g>
<g>
	<path class="st3" d="M555.3,209.7c-54.9,22-114.4,0-114.4,0l-1,33l21.2,20.9l44.2,7.8l41.9-16.3l15.4-25.8L555.3,209.7z"/>
	<path class="st4" d="M937.2,616.5C806.5,360.1,688.5,259.4,688.5,259.4c-21.6-10.6-82.5-34.7-82.5-34.7l-107.9,58l-107.9-58
		c0,0-60.9,24.1-82.5,34.7c0,0-118,100.7-248.8,357.1c0,0,47,41.9,71.1,52.7c0,0,114.2-138.8,184-227.7c0,0-35.5,234.6,9.3,282
		l12,60.5c1.4,6.8,7.7,11.5,14.7,10.7l93.6-10.8c36.2-4.2,72.7-4.2,108.9,0l93.6,10.8c6.9,0.8,13.3-3.9,14.7-10.7l12-60.5
		c44.8-47.4,9.3-282,9.3-282c69.8,88.8,184,227.7,184,227.7C890.3,658.4,937.2,616.5,937.2,616.5z"/>
	<path class="st5" d="M323.4,723.5l12,60.5c1.4,6.8,7.7,11.5,14.7,10.7l93.6-10.8c36.2-4.2,72.7-4.2,108.9,0l93.6,10.8
		c6.9,0.8,13.3-3.9,14.7-10.7l12-60.5C475.7,685.4,323.4,723.5,323.4,723.5z"/>
	<path class="st6" d="M314.1,441.5c0,0-5.1,33.6-9,78c152.5-35.8,318.6-10.6,386.3,2.6c-3.9-45.6-9.2-80.6-9.2-80.6
		C446.1,382.2,314.1,441.5,314.1,441.5z"/>
	<path class="st6" d="M356.8,543.5c0.3-0.1,0.6-0.3,0.8-0.6c0.1-0.1,0.1-0.3,0.1-0.4c0-0.1,0-0.3-0.1-0.4c-0.1-0.1-0.1-0.2-0.2-0.3
		c-0.1-0.1-0.1-0.1-0.2-0.2c-0.1-0.1-0.2-0.1-0.3-0.1c-0.1,0-0.1,0-0.2,0l-1.8,0l2.5-2.4c0.2-0.2,0.2-0.6,0-0.9c0,0-0.1-0.1-0.1-0.1
		c-0.1-0.1-0.2-0.1-0.3-0.1l0,0c-0.1,0-0.2,0-0.2,0c-0.1,0-0.1,0.1-0.2,0.1l-3.4,3.3l-4.1,0l4.5-4.5l2.6,0.1l0,0l0,0h0c0,0,0,0,0,0
		c0,0,0,0,0.1,0c0,0,0,0,0.1,0c0,0,0,0,0,0c0,0,0,0,0.1,0c0,0,0,0,0.1,0c0,0,0,0,0.1,0c0,0,0,0,0,0c0,0,0,0,0,0c0,0,0,0,0,0
		c0,0,0,0,0,0c0,0,0,0,0,0c0,0,0,0,0-0.1c0,0,0,0,0,0c0,0,0,0,0-0.1c0,0,0,0,0,0c0,0,0-0.1,0-0.1c0-0.3-0.2-0.6-0.6-0.6l-1.4,0l1-1
		c0.1-0.1,0.2-0.3,0.2-0.4c0-0.1,0-0.1,0-0.2c0-0.2-0.1-0.4-0.2-0.6c-0.1-0.1-0.3-0.2-0.4-0.2c-0.1,0-0.1,0-0.2,0
		c-0.1,0-0.1,0-0.2,0c-0.2,0-0.3,0.1-0.4,0.2l-0.7,0.7l-0.4,0.4l0-1.3c0-0.3-0.3-0.6-0.6-0.6h0c0,0,0,0-0.1,0c0,0,0,0-0.1,0
		c0,0,0,0-0.1,0c0,0,0,0,0,0c0,0,0,0-0.1,0c0,0,0,0,0,0c0,0,0,0-0.1,0c0,0,0,0,0,0c0,0,0,0,0,0c0,0,0,0,0,0.1c0,0,0,0,0,0
		c0,0,0,0,0,0.1c0,0,0,0,0,0c0,0,0,0,0,0.1c0,0,0,0,0,0c0,0,0,0.1,0,0.1l0,0l0,2.5l-4.9,4.8l0-1.4c0,0,0-0.1,0-0.1c0,0,0,0,0,0
		c0,0,0,0,0-0.1c0,0,0,0,0,0c0,0,0,0,0,0c0,0,0,0-0.1,0c0,0,0,0,0,0c0,0-0.1,0-0.1,0c0,0,0,0,0,0c0,0,0,0,0,0c0,0,0,0-0.1,0
		c0,0,0,0,0,0c0,0-0.1,0-0.1,0.1l-1.4,1.4l-0.9,0.9l-1.8,0l0-1.8l0.9-0.8l1.5-1.3c0.1-0.1,0.1-0.1,0.1-0.2c0,0,0-0.1,0-0.1
		c0-0.1-0.1-0.2-0.3-0.2l-1.4,0l4.2-4.1c0.1-0.1,0.1-0.2,0.2-0.3c0-0.1,0.1-0.2,0.1-0.3c0-0.2-0.1-0.4-0.2-0.6
		c-0.3-0.3-0.8-0.3-1.2,0l-3.8,3.7l0-4.1l3.4-3.3c0,0,0.1-0.1,0.1-0.1c0-0.1,0.1-0.1,0.1-0.2c0-0.2,0-0.4-0.2-0.6
		c-0.1-0.1-0.3-0.2-0.4-0.2c0,0-0.1,0-0.1,0c-0.1,0-0.2,0-0.2,0.1c0,0-0.1,0-0.1,0.1l-2.5,2.4l0-1.8c0-0.4-0.2-0.7-0.4-0.9
		c-0.2-0.1-0.4-0.2-0.6-0.2l0,0l0,0c-0.4,0-0.8,0.3-1,0.6c-0.1,0.1-0.1,0.3-0.1,0.4l0,1.8l-2.4-2.5c0,0-0.1-0.1-0.1-0.1
		c-0.1,0-0.1-0.1-0.2-0.1c0,0-0.1,0-0.1,0c-0.1,0-0.2,0-0.2,0c-0.1,0-0.1,0.1-0.2,0.1c0,0-0.1,0.1-0.1,0.1c-0.1,0.2-0.1,0.5,0,0.7
		c0,0,0,0.1,0.1,0.1l3.3,3.4l0,4.1l-3.7-3.8c-0.3-0.3-0.8-0.3-1.2,0c-0.2,0.2-0.2,0.4-0.3,0.6c0,0.1,0,0.2,0.1,0.3
		c0,0.1,0.1,0.2,0.2,0.3l4.1,4.2l-1.4,0c-0.1,0-0.2,0.1-0.3,0.2c0,0,0,0.1,0,0.1c0,0.1,0,0.2,0.1,0.2l1.4,1.4l0.9,0.9l0,1.8l-1.8,0
		l-0.8-0.9l-1.3-1.5c0,0-0.1,0-0.1-0.1c0,0,0,0,0,0c0,0,0,0-0.1,0c0,0,0,0,0,0c0,0,0,0,0,0c0,0-0.1,0-0.1,0c0,0,0,0,0,0
		c0,0,0,0-0.1,0c0,0,0,0,0,0c0,0,0,0,0,0c0,0,0,0,0,0.1c0,0,0,0,0,0c0,0,0,0.1,0,0.1l0,1.4l-5.4-5.5l-0.1-2.5c0,0,0-0.1,0-0.1
		c0,0,0,0,0,0c0,0,0,0,0-0.1c0,0,0,0,0,0c0,0,0,0,0-0.1c0,0,0,0,0,0c0,0,0,0,0,0c0,0,0,0,0,0c0,0,0,0,0,0c0,0,0,0,0,0c0,0,0,0-0.1,0
		c0,0,0,0,0,0c0,0,0,0,0,0c0,0,0,0-0.1,0c0,0,0,0,0,0c0,0,0,0,0,0c0,0,0,0-0.1,0c0,0,0,0,0,0c-0.2,0-0.4,0.1-0.5,0.3
		c-0.1,0.1-0.1,0.2-0.1,0.3l0,1.3l-0.1-0.2c-0.1-0.1-0.2-0.1-0.3-0.2c-0.1,0-0.1,0-0.2,0c-0.1,0-0.1,0-0.2,0l0,0c-0.1,0-0.1,0-0.2,0
		c-0.1,0-0.1,0-0.2,0c-0.1,0-0.1,0-0.1,0.1c0,0-0.1,0.1-0.1,0.1c-0.3,0.3-0.3,0.8,0,1.2l0.1,0.1l0.2,0.2l-1.4,0c0,0-0.1,0-0.1,0
		c-0.1,0-0.2,0.1-0.3,0.2c-0.1,0.1-0.2,0.3-0.2,0.4c0,0,0,0.1,0,0.1c0,0,0,0,0,0c0,0,0,0,0,0.1c0,0,0,0,0,0c0,0,0,0,0,0.1
		c0,0,0,0,0,0c0,0,0,0,0,0c0,0,0,0,0,0c0,0,0,0,0,0c0,0,0,0,0,0c0,0,0,0,0.1,0c0,0,0,0,0,0c0,0,0,0,0.1,0c0,0,0,0,0.1,0
		c0,0,0,0,0.1,0c0,0,0,0,0,0l2.5-0.1l2.4,2.5l2.4,2.5l-4.1,0l-3.3-3.4c-0.1-0.1-0.1-0.1-0.2-0.1c-0.1-0.1-0.3-0.1-0.5,0
		c-0.1,0-0.1,0.1-0.2,0.1c-0.2,0.2-0.2,0.6,0,0.9l2.4,2.5l-1.8,0c-0.4,0-0.7,0.2-0.9,0.4c-0.1,0.2-0.2,0.3-0.2,0.6c0,0,0,0,0,0l0,0
		l0,0c0,0.4,0.2,0.7,0.4,0.9c0.2,0.1,0.4,0.2,0.6,0.2l1.8,0l-2.5,2.4c-0.1,0.1-0.1,0.2-0.2,0.3c0,0.2,0,0.4,0.2,0.6
		c0.1,0.1,0.2,0.1,0.3,0.2c0,0,0.1,0,0.1,0c0,0,0.1,0,0.1,0c0.1,0,0.2-0.1,0.3-0.2l3.4-3.3l4.1,0l-2.7,2.6l-1.8,1.7l-2.6,0.2
		c-0.1,0-0.2,0.1-0.3,0.1c-0.1,0.1-0.2,0.2-0.2,0.4c0,0,0,0.1,0,0.1c0,0,0,0.1,0,0.1c0,0,0,0,0,0c0,0,0,0,0,0.1c0,0,0,0,0,0
		c0,0,0,0,0,0.1c0,0,0,0,0,0c0,0,0,0,0,0c0,0,0,0,0,0c0,0,0,0,0,0c0,0,0,0,0,0c0,0,0,0,0.1,0c0,0,0,0,0,0c0,0,0,0,0.1,0
		c0,0,0,0,0.1,0c0,0,0,0,0,0c0,0,0,0,0.1,0l1.2-0.1l-0.6,0.6c0,0-0.1,0.1-0.1,0.1c-0.1,0.1-0.1,0.3-0.1,0.5c0,0.2,0,0.3,0.1,0.5
		c0,0,0.1,0.1,0.1,0.1c0.1,0.1,0.2,0.1,0.3,0.2c0.1,0,0.2,0.1,0.3,0.1c0.2,0,0.4-0.1,0.6-0.2l1-1l0.1,1.5c0,0,0,0.1,0,0.1l0,0
		c0,0,0,0,0,0c0,0,0,0,0,0.1c0,0,0,0,0,0c0,0,0,0,0,0.1c0,0,0,0,0,0c0,0,0,0,0,0c0,0,0,0,0,0c0,0,0,0,0,0c0,0,0,0,0,0c0,0,0,0,0,0
		c0,0,0,0,0.1,0c0,0,0,0,0,0c0,0,0,0,0.1,0c0,0,0,0,0.1,0c0,0,0,0,0,0c0,0,0,0,0.1,0l0,0l0,0c0.2,0,0.4-0.1,0.5-0.3
		c0.1-0.1,0.1-0.2,0.1-0.3l-0.2-2.5l4.7-4.6l0,1.4c0,0,0,0.1,0,0.1c0,0,0,0,0,0c0,0,0,0,0,0.1c0,0,0,0,0,0c0,0,0,0,0.1,0.1
		c0,0,0,0,0,0c0,0,0.1,0,0.1,0c0,0,0,0,0,0c0,0,0,0,0,0c0,0,0,0,0.1,0c0,0,0,0,0,0c0,0,0.1,0,0.1-0.1l1.4-1.4l0.9-0.9l1.8,0l0,1.8
		l-0.9,0.8l-1.5,1.3c0,0-0.1,0.1-0.1,0.1c0,0,0,0.1,0,0.1c0,0,0,0.1,0,0.1c0,0,0,0,0,0.1c0,0.1,0.1,0.1,0.2,0.1l1.4,0l-4.2,4.1
		c0,0-0.1,0.1-0.1,0.1c-0.1,0.1-0.1,0.2-0.1,0.3c0,0.1,0,0.1,0,0.2c0,0.2,0.1,0.4,0.2,0.6c0,0,0.1,0.1,0.1,0.1
		c0.1,0.1,0.2,0.1,0.3,0.1c0,0,0.1,0,0.1,0s0.1,0,0.1,0c0.1,0,0.2-0.1,0.3-0.1c0,0,0.1-0.1,0.1-0.1l3.8-3.7l0,4.1l-3.4,3.3
		c0,0-0.1,0.1-0.1,0.1c-0.2,0.2-0.1,0.6,0.1,0.8c0.2,0.2,0.6,0.2,0.9,0l2.5-2.4l0,1.8c0,0.3,0.1,0.5,0.3,0.7
		c0.1,0.1,0.3,0.2,0.5,0.3c0.1,0,0.1,0,0.2,0c0,0,0,0,0,0l0,0l0,0c0.4,0,0.7-0.2,0.9-0.4c0.1-0.2,0.2-0.4,0.2-0.6l0-1.8l2.4,2.5
		c0.2,0.2,0.6,0.2,0.9,0c0.1-0.1,0.2-0.3,0.2-0.4c0,0,0-0.1,0-0.1c0-0.1-0.1-0.2-0.2-0.3l-3.3-3.4l0-4.1l1.2,1.3l2.4,2.5
		c0.1,0.1,0.2,0.1,0.3,0.2c0.1,0,0.1,0,0.2,0c0.1,0,0.1,0,0.2,0c0,0,0.1,0,0.1,0c0.2,0,0.3-0.1,0.4-0.2c0.2-0.2,0.2-0.4,0.3-0.6
		c0-0.1,0-0.1,0-0.2c0-0.2-0.1-0.3-0.2-0.4l-4.1-4.2l1.4,0c0.2,0,0.4-0.3,0.2-0.5l-1.4-1.4l-0.9-0.9l0-1.8l1.8,0l0.8,0.9l1.3,1.5
		c0,0,0.1,0,0.1,0.1c0,0,0,0,0,0c0,0,0,0,0.1,0c0,0,0,0,0,0c0,0,0,0,0,0c0,0,0.1,0,0.1,0l0,0c0,0,0.1,0,0.1,0c0,0,0,0,0,0
		c0,0,0,0,0-0.1c0,0,0,0,0,0c0,0,0-0.1,0-0.1l0-1.4l5.1,5.2l-0.2,2.5c0,0.1,0,0.2,0,0.2c0.1,0.2,0.3,0.4,0.5,0.4c0,0,0,0,0,0
		c0,0,0,0,0,0c0,0,0,0,0.1,0c0,0,0,0,0.1,0c0,0,0,0,0,0c0,0,0,0,0.1,0c0,0,0,0,0,0c0,0,0,0,0.1,0c0,0,0,0,0,0c0,0,0,0,0,0
		c0,0,0,0,0,0c0,0,0,0,0-0.1c0,0,0,0,0,0c0,0,0,0,0-0.1c0,0,0,0,0,0c0,0,0-0.1,0-0.1l0.1-1.5l1,1c0.1,0.1,0.2,0.1,0.3,0.2
		c0.1,0,0.2,0.1,0.3,0.1c0.1,0,0.2,0,0.4-0.1c0.1,0,0.2-0.1,0.2-0.2c0.3-0.3,0.3-0.8,0-1.2l-0.9-0.9l1.2,0.1c0,0,0,0,0,0
		c0,0,0,0,0,0c0,0,0,0,0.1,0c0,0,0,0,0.1,0c0,0,0,0,0,0c0,0,0,0,0.1,0c0,0,0,0,0,0c0,0,0,0,0.1,0c0,0,0,0,0,0c0,0,0,0,0,0
		c0,0,0,0,0,0c0,0,0,0,0-0.1c0,0,0,0,0,0c0,0,0,0,0-0.1c0,0,0,0,0,0c0,0,0-0.1,0-0.1c0-0.3-0.2-0.6-0.5-0.6l-2.6-0.2l-4.7-4.8l4.1,0
		l3.3,3.4c0.1,0.1,0.1,0.1,0.2,0.1c0.1,0,0.2,0,0.2,0h0c0,0,0,0,0,0c0.1,0,0.1,0,0.2,0c0,0,0.1,0,0.1-0.1c0,0,0.1,0,0.1-0.1
		c0.2-0.2,0.2-0.6,0-0.9l-2.4-2.5l1.8,0C356.7,543.5,356.7,543.5,356.8,543.5z"/>
	<path class="st6" d="M406.3,535.3c0.3-0.1,0.6-0.3,0.8-0.6c0.1-0.1,0.1-0.3,0.1-0.4c0-0.1,0-0.3-0.1-0.4c-0.1-0.1-0.1-0.2-0.2-0.3
		c-0.1-0.1-0.1-0.1-0.2-0.2c-0.1-0.1-0.2-0.1-0.3-0.1c-0.1,0-0.1,0-0.2,0l-1.8,0l2.5-2.4c0.2-0.2,0.2-0.6,0-0.9c0,0-0.1-0.1-0.1-0.1
		c-0.1-0.1-0.2-0.1-0.3-0.1l0,0c-0.1,0-0.2,0-0.2,0c-0.1,0-0.1,0.1-0.2,0.1l-3.4,3.3l-4.1,0l4.5-4.5l2.6,0.1l0,0l0,0l0,0
		c0,0,0,0,0,0c0,0,0,0,0.1,0c0,0,0,0,0.1,0c0,0,0,0,0,0c0,0,0,0,0.1,0c0,0,0,0,0.1,0c0,0,0,0,0.1,0c0,0,0,0,0,0c0,0,0,0,0,0
		c0,0,0,0,0,0c0,0,0,0,0,0c0,0,0,0,0,0c0,0,0,0,0-0.1c0,0,0,0,0,0c0,0,0,0,0-0.1c0,0,0,0,0,0c0,0,0-0.1,0-0.1c0-0.3-0.2-0.6-0.6-0.6
		l-1.4,0l1-1c0.1-0.1,0.2-0.3,0.2-0.4c0-0.1,0-0.1,0-0.2c0-0.2-0.1-0.4-0.2-0.6c-0.1-0.1-0.3-0.2-0.4-0.2c-0.1,0-0.1,0-0.2,0
		c-0.1,0-0.1,0-0.2,0c-0.2,0-0.3,0.1-0.4,0.2l-0.7,0.7l-0.4,0.4l0-1.3c0-0.3-0.2-0.6-0.6-0.6h0c0,0,0,0-0.1,0c0,0,0,0-0.1,0
		c0,0,0,0-0.1,0c0,0,0,0,0,0c0,0,0,0-0.1,0c0,0,0,0,0,0c0,0,0,0-0.1,0c0,0,0,0,0,0c0,0,0,0,0,0c0,0,0,0,0,0.1c0,0,0,0,0,0
		c0,0,0,0,0,0.1c0,0,0,0,0,0c0,0,0,0,0,0.1c0,0,0,0,0,0c0,0,0,0.1,0,0.1l0,0l0,2.5l-4.9,4.8l0-1.4c0,0,0-0.1,0-0.1c0,0,0,0,0,0
		c0,0,0,0,0-0.1c0,0,0,0,0,0c0,0,0,0,0,0c0,0,0,0-0.1,0c0,0,0,0,0,0c0,0-0.1,0-0.1,0c0,0,0,0,0,0c0,0,0,0,0,0c0,0,0,0-0.1,0
		c0,0,0,0,0,0c0,0-0.1,0-0.1,0.1l-1.4,1.4l-0.9,0.9l-1.8,0l0-1.8l0.9-0.8l1.5-1.3c0.1-0.1,0.1-0.1,0.1-0.2c0,0,0-0.1,0-0.1
		c0-0.1-0.1-0.2-0.3-0.2l-1.4,0l4.2-4.1c0.1-0.1,0.1-0.2,0.2-0.3c0-0.1,0.1-0.2,0.1-0.3c0-0.2-0.1-0.4-0.2-0.6
		c-0.3-0.3-0.8-0.3-1.2,0l-3.8,3.7l0-4.1l3.4-3.3c0,0,0.1-0.1,0.1-0.1c0-0.1,0.1-0.1,0.1-0.2c0-0.2,0-0.4-0.2-0.6
		c-0.1-0.1-0.3-0.2-0.4-0.2c0,0-0.1,0-0.1,0c-0.1,0-0.2,0-0.2,0.1c0,0-0.1,0-0.1,0.1l-2.5,2.4l0-1.8c0-0.4-0.2-0.7-0.4-0.9
		c-0.2-0.1-0.4-0.2-0.6-0.2l0,0l0,0c-0.4,0-0.8,0.3-1,0.6c-0.1,0.1-0.1,0.3-0.1,0.4l0,1.8l-2.4-2.5c0,0-0.1-0.1-0.1-0.1
		c-0.1,0-0.1-0.1-0.2-0.1c0,0-0.1,0-0.1,0c-0.1,0-0.2,0-0.2,0c-0.1,0-0.1,0.1-0.2,0.1c0,0-0.1,0.1-0.1,0.1c-0.1,0.2-0.1,0.5,0,0.7
		c0,0,0,0.1,0.1,0.1l3.3,3.4l0,4.1l-3.7-3.8c-0.3-0.3-0.8-0.3-1.2,0c-0.2,0.2-0.2,0.4-0.3,0.6c0,0.1,0,0.2,0.1,0.3
		c0,0.1,0.1,0.2,0.2,0.3l4.1,4.2l-1.4,0c-0.1,0-0.2,0.1-0.3,0.2c0,0,0,0,0,0.1c0,0.1,0,0.2,0.1,0.2l1.4,1.4l0.9,0.9l0,1.8l-1.8,0
		l-0.8-0.9l-1.3-1.5c0,0-0.1,0-0.1-0.1c0,0,0,0,0,0c0,0,0,0-0.1,0c0,0,0,0,0,0c0,0,0,0,0,0c0,0-0.1,0-0.1,0c0,0,0,0,0,0
		c0,0,0,0-0.1,0c0,0,0,0,0,0c0,0,0,0,0,0c0,0,0,0,0,0.1c0,0,0,0,0,0c0,0,0,0.1,0,0.1l0,1.4l-5.4-5.5l-0.1-2.5c0,0,0-0.1,0-0.1
		c0,0,0,0,0,0c0,0,0-0.1,0-0.1c0,0,0,0,0,0c0,0,0,0,0-0.1c0,0,0,0,0,0c0,0,0,0,0,0c0,0,0,0,0,0c0,0,0,0,0,0c0,0,0,0,0,0
		c0,0,0,0-0.1,0c0,0,0,0,0,0c0,0,0,0,0,0c0,0,0,0-0.1,0c0,0,0,0,0,0c0,0,0,0,0,0c0,0,0,0-0.1,0c0,0,0,0,0,0c-0.2,0-0.4,0.1-0.5,0.3
		c-0.1,0.1-0.1,0.2-0.1,0.3l0,1.3l-0.1-0.2c-0.1-0.1-0.2-0.1-0.3-0.2c-0.1,0-0.1,0-0.2,0c-0.1,0-0.1,0-0.2,0l0,0c-0.1,0-0.1,0-0.2,0
		c-0.1,0-0.1,0-0.2,0c-0.1,0-0.1,0-0.1,0.1c0,0-0.1,0.1-0.1,0.1c-0.3,0.3-0.3,0.8,0,1.2l0.1,0.1l0.2,0.2l-1.4,0c0,0-0.1,0-0.1,0
		c-0.1,0-0.2,0.1-0.3,0.2c-0.1,0.1-0.2,0.3-0.2,0.4c0,0,0,0.1,0,0.1c0,0,0,0,0,0c0,0,0,0,0,0.1c0,0,0,0,0,0c0,0,0,0,0,0.1
		c0,0,0,0,0,0c0,0,0,0,0,0c0,0,0,0,0,0c0,0,0,0,0,0c0,0,0,0,0,0c0,0,0,0,0.1,0c0,0,0,0,0,0c0,0,0,0,0.1,0c0,0,0,0,0.1,0
		c0,0,0,0,0.1,0c0,0,0,0,0,0l2.5-0.1l2.4,2.5l2.4,2.5l-4.1,0l-3.3-3.4c-0.1-0.1-0.1-0.1-0.2-0.1c-0.1-0.1-0.3-0.1-0.5,0
		c-0.1,0-0.1,0.1-0.2,0.1c-0.2,0.2-0.2,0.6,0,0.9l2.4,2.5l-1.8,0c-0.4,0-0.7,0.2-0.9,0.4c-0.1,0.2-0.2,0.3-0.2,0.6c0,0,0,0,0,0l0,0
		l0,0c0,0.4,0.2,0.7,0.4,0.9c0.2,0.1,0.4,0.2,0.6,0.2l1.8,0l-2.5,2.4c-0.1,0.1-0.1,0.2-0.2,0.3c0,0.2,0,0.4,0.2,0.6
		c0.1,0.1,0.2,0.1,0.3,0.2c0,0,0.1,0,0.1,0s0.1,0,0.1,0c0.1,0,0.2-0.1,0.3-0.2l3.4-3.3l4.1,0l-2.7,2.6l-1.8,1.7l-2.6,0.2
		c-0.1,0-0.2,0.1-0.3,0.1c-0.1,0.1-0.2,0.2-0.2,0.4c0,0,0,0.1,0,0.1c0,0,0,0.1,0,0.1c0,0,0,0,0,0c0,0,0,0,0,0.1c0,0,0,0,0,0
		c0,0,0,0,0,0.1c0,0,0,0,0,0c0,0,0,0,0,0c0,0,0,0,0,0c0,0,0,0,0,0c0,0,0,0,0,0c0,0,0,0,0.1,0c0,0,0,0,0,0c0,0,0,0,0.1,0
		c0,0,0,0,0.1,0c0,0,0,0,0,0c0,0,0,0,0.1,0l1.2-0.1l-0.6,0.6c0,0-0.1,0.1-0.1,0.1c-0.1,0.1-0.1,0.3-0.1,0.5c0,0.2,0,0.3,0.1,0.5
		c0,0,0.1,0.1,0.1,0.1c0.1,0.1,0.2,0.1,0.3,0.2c0.1,0,0.2,0.1,0.3,0.1c0.2,0,0.4-0.1,0.6-0.2l1-1l0.1,1.5c0,0,0,0.1,0,0.1l0,0
		c0,0,0,0,0,0c0,0,0,0,0,0.1c0,0,0,0,0,0c0,0,0,0,0,0.1c0,0,0,0,0,0c0,0,0,0,0,0c0,0,0,0,0,0c0,0,0,0,0,0c0,0,0,0,0,0c0,0,0,0,0,0
		c0,0,0,0,0.1,0c0,0,0,0,0,0c0,0,0,0,0.1,0c0,0,0,0,0.1,0c0,0,0,0,0,0c0,0,0,0,0.1,0l0,0l0,0c0.2,0,0.4-0.1,0.5-0.3
		c0.1-0.1,0.1-0.2,0.1-0.3l-0.2-2.5l4.7-4.6l0,1.4c0,0,0,0.1,0,0.1c0,0,0,0,0,0c0,0,0,0,0,0.1c0,0,0,0,0,0c0,0,0,0,0.1,0.1
		c0,0,0,0,0,0c0,0,0.1,0,0.1,0c0,0,0,0,0,0c0,0,0,0,0,0c0,0,0,0,0.1,0c0,0,0,0,0,0c0,0,0.1,0,0.1-0.1l1.4-1.4l0.9-0.9l1.8,0l0,1.8
		l-0.9,0.8l-1.5,1.3c0,0-0.1,0.1-0.1,0.1c0,0,0,0.1,0,0.1c0,0,0,0.1,0,0.1c0,0,0,0,0,0.1c0,0.1,0.1,0.1,0.2,0.1l1.4,0l-4.2,4.1
		c0,0-0.1,0.1-0.1,0.1c-0.1,0.1-0.1,0.2-0.1,0.3c0,0.1,0,0.1,0,0.2c0,0.2,0.1,0.4,0.2,0.6c0,0,0.1,0.1,0.1,0.1
		c0.1,0.1,0.2,0.1,0.3,0.1c0,0,0.1,0,0.1,0c0,0,0.1,0,0.1,0c0.1,0,0.2-0.1,0.3-0.1c0,0,0.1-0.1,0.1-0.1l3.8-3.7l0,4.1l-3.4,3.3
		c0,0-0.1,0.1-0.1,0.1c-0.2,0.2-0.1,0.6,0.1,0.8c0.2,0.2,0.6,0.2,0.9,0l2.5-2.4l0,1.8c0,0.3,0.1,0.5,0.3,0.7
		c0.1,0.1,0.3,0.2,0.5,0.3c0.1,0,0.1,0,0.2,0c0,0,0,0,0,0l0,0l0,0c0.4,0,0.7-0.2,0.9-0.4c0.1-0.2,0.2-0.4,0.2-0.6l0-1.8l2.4,2.5
		c0.2,0.2,0.6,0.2,0.9,0c0.1-0.1,0.2-0.3,0.2-0.4c0,0,0-0.1,0-0.1c0-0.1-0.1-0.2-0.2-0.3l-3.3-3.4l0-4.1l1.2,1.3l2.4,2.5
		c0.1,0.1,0.2,0.1,0.3,0.2c0.1,0,0.1,0,0.2,0c0.1,0,0.1,0,0.2,0c0,0,0.1,0,0.1,0c0.2,0,0.3-0.1,0.4-0.2c0.2-0.2,0.2-0.4,0.3-0.6
		c0-0.1,0-0.1,0-0.2c0-0.2-0.1-0.3-0.2-0.4l-4.1-4.2l1.4,0c0.2,0,0.4-0.3,0.2-0.5l-1.4-1.4l-0.9-0.9l0-1.8l1.8,0l0.8,0.9l1.3,1.5
		c0,0,0.1,0,0.1,0.1c0,0,0,0,0,0c0,0,0,0,0.1,0c0,0,0,0,0,0c0,0,0,0,0,0c0,0,0.1,0,0.1,0l0,0c0,0,0.1,0,0.1,0c0,0,0,0,0,0
		c0,0,0,0,0-0.1c0,0,0,0,0,0c0,0,0-0.1,0-0.1l0-1.4l5.1,5.2l-0.2,2.5c0,0.1,0,0.2,0,0.2c0.1,0.2,0.3,0.4,0.5,0.4c0,0,0,0,0,0
		c0,0,0,0,0,0c0,0,0,0,0.1,0c0,0,0,0,0.1,0c0,0,0,0,0,0c0,0,0,0,0.1,0c0,0,0,0,0,0c0,0,0,0,0.1,0c0,0,0,0,0,0c0,0,0,0,0,0
		c0,0,0,0,0,0c0,0,0,0,0-0.1c0,0,0,0,0,0c0,0,0,0,0-0.1c0,0,0,0,0,0c0,0,0-0.1,0-0.1l0.1-1.5l1,1c0.1,0.1,0.2,0.1,0.3,0.2
		c0.1,0,0.2,0.1,0.3,0.1c0.1,0,0.2,0,0.4-0.1c0.1,0,0.2-0.1,0.2-0.2c0.3-0.3,0.3-0.8,0-1.2l-0.9-0.9l1.2,0.1c0,0,0,0,0,0
		c0,0,0,0,0,0c0,0,0,0,0.1,0c0,0,0,0,0.1,0c0,0,0,0,0,0c0,0,0,0,0.1,0c0,0,0,0,0,0c0,0,0,0,0.1,0c0,0,0,0,0,0c0,0,0,0,0,0
		c0,0,0,0,0,0c0,0,0,0,0-0.1c0,0,0,0,0,0c0,0,0,0,0-0.1c0,0,0,0,0,0c0,0,0-0.1,0-0.1c0-0.3-0.2-0.6-0.5-0.6l-2.6-0.2l-4.7-4.8l4.1,0
		l3.3,3.4c0.1,0.1,0.1,0.1,0.2,0.1c0.1,0,0.2,0,0.2,0h0c0,0,0,0,0,0c0.1,0,0.1,0,0.2,0c0,0,0.1,0,0.1-0.1c0,0,0.1,0,0.1-0.1
		c0.2-0.2,0.2-0.6,0-0.9l-2.4-2.5l1.8,0C406.2,535.3,406.2,535.3,406.3,535.3z"/>
	<path class="st6" d="M458.2,531.9c0.3-0.1,0.6-0.3,0.8-0.6c0.1-0.1,0.1-0.3,0.1-0.4c0-0.1,0-0.3-0.1-0.4c-0.1-0.1-0.1-0.2-0.2-0.3
		c-0.1-0.1-0.1-0.1-0.2-0.2c-0.1-0.1-0.2-0.1-0.3-0.1c-0.1,0-0.1,0-0.2,0l-1.8,0l2.5-2.4c0.2-0.2,0.2-0.6,0-0.9c0,0-0.1-0.1-0.1-0.1
		c-0.1-0.1-0.2-0.1-0.3-0.1l0,0c-0.1,0-0.2,0-0.2,0c-0.1,0-0.1,0.1-0.2,0.1l-3.4,3.3l-4.1,0l4.5-4.5l2.6,0.1l0,0l0,0l0,0
		c0,0,0,0,0,0c0,0,0,0,0.1,0c0,0,0,0,0.1,0l0,0c0,0,0,0,0.1,0c0,0,0,0,0.1,0c0,0,0,0,0.1,0c0,0,0,0,0,0c0,0,0,0,0,0c0,0,0,0,0,0
		c0,0,0,0,0,0c0,0,0,0,0,0c0,0,0,0,0-0.1c0,0,0,0,0,0c0,0,0,0,0-0.1c0,0,0,0,0,0c0,0,0-0.1,0-0.1c0-0.3-0.2-0.6-0.6-0.6l-1.4,0l1-1
		c0.1-0.1,0.2-0.3,0.2-0.4c0-0.1,0-0.1,0-0.2c0-0.2-0.1-0.4-0.2-0.6c-0.1-0.1-0.3-0.2-0.4-0.2c-0.1,0-0.1,0-0.2,0
		c-0.1,0-0.1,0-0.2,0c-0.2,0-0.3,0.1-0.4,0.2l-0.7,0.7l-0.4,0.4l0-1.3c0-0.3-0.2-0.6-0.6-0.6c0,0,0,0,0,0c0,0,0,0-0.1,0
		c0,0,0,0-0.1,0c0,0,0,0-0.1,0c0,0,0,0,0,0c0,0,0,0-0.1,0c0,0,0,0,0,0c0,0,0,0-0.1,0c0,0,0,0,0,0l0,0c0,0,0,0,0,0.1c0,0,0,0,0,0
		c0,0,0,0,0,0.1c0,0,0,0,0,0c0,0,0,0,0,0.1c0,0,0,0,0,0c0,0,0,0.1,0,0.1c0,0,0,0,0,0l0,2.5l-4.9,4.8l0-1.4c0,0,0-0.1,0-0.1
		c0,0,0,0,0,0c0,0,0,0,0-0.1c0,0,0,0,0,0c0,0,0,0,0,0c0,0,0,0-0.1,0c0,0,0,0,0,0c0,0-0.1,0-0.1,0c0,0,0,0,0,0c0,0,0,0,0,0
		c0,0,0,0-0.1,0c0,0,0,0,0,0c0,0-0.1,0-0.1,0.1l-1.4,1.4l-0.9,0.9l-1.8,0l0-1.8l0.9-0.8l1.5-1.3c0.1-0.1,0.1-0.1,0.1-0.2
		c0,0,0-0.1,0-0.1c0-0.1-0.1-0.2-0.3-0.2l-1.4,0l4.2-4.1c0.1-0.1,0.1-0.2,0.2-0.3c0-0.1,0.1-0.2,0.1-0.3c0-0.2-0.1-0.4-0.2-0.6
		c-0.3-0.3-0.8-0.3-1.2,0l-3.8,3.7l0-4.1l3.4-3.3c0,0,0.1-0.1,0.1-0.1c0-0.1,0.1-0.1,0.1-0.2c0-0.2,0-0.4-0.2-0.6
		c-0.1-0.1-0.3-0.2-0.4-0.2c0,0-0.1,0-0.1,0c-0.1,0-0.2,0-0.2,0.1c0,0-0.1,0-0.1,0.1l-2.5,2.4l0-1.8c0-0.4-0.2-0.7-0.4-0.9
		c-0.2-0.1-0.4-0.2-0.6-0.2l0,0l0,0c-0.4,0-0.8,0.3-1,0.6c-0.1,0.1-0.1,0.3-0.1,0.4l0,1.8l-2.4-2.5c0,0-0.1-0.1-0.1-0.1
		c-0.1,0-0.1-0.1-0.2-0.1c0,0-0.1,0-0.1,0c-0.1,0-0.2,0-0.2,0c-0.1,0-0.1,0.1-0.2,0.1c0,0-0.1,0.1-0.1,0.1c-0.1,0.2-0.1,0.5,0,0.7
		c0,0,0,0.1,0.1,0.1l3.3,3.4l0,4.1l-3.7-3.8c-0.3-0.3-0.8-0.3-1.2,0c-0.2,0.2-0.2,0.4-0.3,0.6c0,0.1,0,0.2,0.1,0.3
		c0,0.1,0.1,0.2,0.2,0.3l4.1,4.2l-1.4,0c-0.1,0-0.2,0.1-0.3,0.2c0,0,0,0.1,0,0.1c0,0.1,0,0.2,0.1,0.2l1.4,1.4l0.9,0.9l0,1.8l-1.8,0
		l-0.8-0.9l-1.3-1.5c0,0-0.1,0-0.1-0.1c0,0,0,0,0,0c0,0,0,0-0.1,0c0,0,0,0,0,0c0,0,0,0,0,0c0,0-0.1,0-0.1,0c0,0,0,0,0,0
		c0,0,0,0-0.1,0c0,0,0,0,0,0c0,0,0,0,0,0c0,0,0,0,0,0.1c0,0,0,0,0,0c0,0,0,0.1,0,0.1l0,1.4l-5.4-5.5l-0.1-2.5c0,0,0-0.1,0-0.1
		c0,0,0,0,0,0c0,0,0-0.1,0-0.1c0,0,0,0,0,0c0,0,0,0,0-0.1c0,0,0,0,0,0c0,0,0,0,0,0c0,0,0,0,0,0c0,0,0,0,0,0c0,0,0,0,0,0
		c0,0,0,0-0.1,0c0,0,0,0,0,0c0,0,0,0,0,0c0,0,0,0-0.1,0c0,0,0,0,0,0c0,0,0,0,0,0c0,0,0,0-0.1,0c0,0,0,0,0,0c-0.2,0-0.4,0.1-0.5,0.3
		c-0.1,0.1-0.1,0.2-0.1,0.3l0,1.3l-0.1-0.2c-0.1-0.1-0.2-0.1-0.3-0.2c-0.1,0-0.1,0-0.2,0c-0.1,0-0.1,0-0.2,0l0,0c-0.1,0-0.1,0-0.2,0
		c-0.1,0-0.1,0-0.2,0c-0.1,0-0.1,0-0.1,0.1c0,0-0.1,0.1-0.1,0.1c-0.3,0.3-0.3,0.8,0,1.2l0.1,0.1l0.2,0.2l-1.4,0c0,0-0.1,0-0.1,0
		c-0.1,0-0.2,0.1-0.3,0.2c-0.1,0.1-0.2,0.3-0.2,0.4c0,0,0,0.1,0,0.1c0,0,0,0,0,0c0,0,0,0,0,0.1c0,0,0,0,0,0c0,0,0,0,0,0.1
		c0,0,0,0,0,0c0,0,0,0,0,0c0,0,0,0,0,0c0,0,0,0,0,0c0,0,0,0,0,0c0,0,0,0,0.1,0c0,0,0,0,0,0c0,0,0,0,0.1,0c0,0,0,0,0.1,0
		c0,0,0,0,0.1,0c0,0,0,0,0,0l2.5-0.1l2.4,2.5l2.4,2.5l-4.1,0l-3.3-3.4c-0.1-0.1-0.1-0.1-0.2-0.1c-0.1-0.1-0.3-0.1-0.5,0
		c-0.1,0-0.1,0.1-0.2,0.1c-0.2,0.2-0.2,0.6,0,0.9l2.4,2.5l-1.8,0c-0.4,0-0.7,0.2-0.9,0.4c-0.1,0.2-0.2,0.3-0.2,0.6c0,0,0,0,0,0l0,0
		l0,0c0,0.4,0.2,0.7,0.4,0.9c0.2,0.1,0.4,0.2,0.6,0.2l1.8,0l-2.5,2.4c-0.1,0.1-0.1,0.2-0.2,0.3c0,0.2,0,0.4,0.2,0.6
		c0.1,0.1,0.2,0.1,0.3,0.2c0,0,0.1,0,0.1,0c0,0,0.1,0,0.1,0c0.1,0,0.2-0.1,0.3-0.2l3.4-3.3l4.1,0l-2.7,2.6l-1.8,1.7l-2.6,0.2
		c-0.1,0-0.2,0.1-0.3,0.1c-0.1,0.1-0.2,0.2-0.2,0.4c0,0,0,0.1,0,0.1c0,0,0,0.1,0,0.1c0,0,0,0,0,0c0,0,0,0,0,0.1c0,0,0,0,0,0
		c0,0,0,0,0,0.1c0,0,0,0,0,0c0,0,0,0,0,0c0,0,0,0,0,0c0,0,0,0,0,0c0,0,0,0,0,0c0,0,0,0,0.1,0c0,0,0,0,0,0c0,0,0,0,0.1,0
		c0,0,0,0,0.1,0c0,0,0,0,0,0c0,0,0,0,0.1,0l1.2-0.1l-0.6,0.6c0,0-0.1,0.1-0.1,0.1c-0.1,0.1-0.1,0.3-0.1,0.5c0,0.2,0,0.3,0.1,0.5
		c0,0,0.1,0.1,0.1,0.1c0.1,0.1,0.2,0.1,0.3,0.2c0.1,0,0.2,0.1,0.3,0.1c0.2,0,0.4-0.1,0.6-0.2l1-1l0.1,1.5c0,0,0,0.1,0,0.1
		c0,0,0,0,0,0c0,0,0,0,0,0c0,0,0,0,0,0.1c0,0,0,0,0,0c0,0,0,0,0,0.1c0,0,0,0,0,0c0,0,0,0,0,0c0,0,0,0,0,0c0,0,0,0,0,0c0,0,0,0,0,0
		c0,0,0,0,0,0c0,0,0,0,0.1,0c0,0,0,0,0,0c0,0,0,0,0.1,0c0,0,0,0,0.1,0c0,0,0,0,0,0c0,0,0,0,0.1,0l0,0l0,0c0.2,0,0.4-0.1,0.5-0.3
		c0.1-0.1,0.1-0.2,0.1-0.3l-0.2-2.5l4.7-4.6l0,1.4c0,0,0,0.1,0,0.1c0,0,0,0,0,0c0,0,0,0,0,0.1c0,0,0,0,0,0c0,0,0,0,0.1,0.1
		c0,0,0,0,0,0c0,0,0.1,0,0.1,0c0,0,0,0,0,0c0,0,0,0,0,0c0,0,0,0,0.1,0c0,0,0,0,0,0c0,0,0.1,0,0.1-0.1l1.4-1.4l0.9-0.9l1.8,0l0,1.8
		l-0.9,0.8l-1.5,1.3c0,0-0.1,0.1-0.1,0.1c0,0,0,0.1,0,0.1c0,0,0,0.1,0,0.1c0,0,0,0,0,0.1c0,0.1,0.1,0.1,0.2,0.1l1.4,0l-4.2,4.1
		c0,0-0.1,0.1-0.1,0.1c-0.1,0.1-0.1,0.2-0.1,0.3c0,0.1,0,0.1,0,0.2c0,0.2,0.1,0.4,0.2,0.6c0,0,0.1,0.1,0.1,0.1
		c0.1,0.1,0.2,0.1,0.3,0.1c0,0,0.1,0,0.1,0c0,0,0.1,0,0.1,0c0.1,0,0.2-0.1,0.3-0.1c0,0,0.1-0.1,0.1-0.1l3.8-3.7l0,4.1l-3.4,3.3
		c0,0-0.1,0.1-0.1,0.1c-0.2,0.2-0.1,0.6,0.1,0.8c0.2,0.2,0.6,0.2,0.9,0l2.5-2.4l0,1.8c0,0.3,0.1,0.5,0.3,0.7
		c0.1,0.1,0.3,0.2,0.5,0.3c0.1,0,0.1,0,0.2,0c0,0,0,0,0,0l0,0l0,0c0.4,0,0.7-0.2,0.9-0.4c0.1-0.2,0.2-0.4,0.2-0.6l0-1.8l2.4,2.5
		c0.2,0.2,0.6,0.2,0.9,0c0.1-0.1,0.2-0.3,0.2-0.4c0,0,0-0.1,0-0.1c0-0.1-0.1-0.2-0.2-0.3l-3.3-3.4l0-4.1l1.2,1.3l2.4,2.5
		c0.1,0.1,0.2,0.1,0.3,0.2c0.1,0,0.1,0,0.2,0c0.1,0,0.1,0,0.2,0c0,0,0.1,0,0.1,0c0.2,0,0.3-0.1,0.4-0.2c0.2-0.2,0.2-0.4,0.3-0.6
		c0-0.1,0-0.1,0-0.2c0-0.2-0.1-0.3-0.2-0.4l-4.1-4.2l1.4,0c0.2,0,0.4-0.3,0.2-0.5l-1.4-1.4l-0.9-0.9l0-1.8l1.8,0l0.8,0.9l1.3,1.5
		c0,0,0.1,0,0.1,0.1c0,0,0,0,0,0c0,0,0,0,0.1,0c0,0,0,0,0,0c0,0,0,0,0,0c0,0,0.1,0,0.1,0c0,0,0,0,0,0c0,0,0.1,0,0.1,0c0,0,0,0,0,0
		c0,0,0,0,0-0.1c0,0,0,0,0,0c0,0,0-0.1,0-0.1l0-1.4l5.1,5.2l-0.2,2.5c0,0.1,0,0.2,0,0.2c0.1,0.2,0.3,0.4,0.5,0.4c0,0,0,0,0,0
		c0,0,0,0,0,0c0,0,0,0,0.1,0c0,0,0,0,0.1,0c0,0,0,0,0,0c0,0,0,0,0.1,0c0,0,0,0,0,0c0,0,0,0,0.1,0c0,0,0,0,0,0c0,0,0,0,0,0
		c0,0,0,0,0,0c0,0,0,0,0-0.1c0,0,0,0,0,0c0,0,0,0,0-0.1c0,0,0,0,0,0c0,0,0-0.1,0-0.1l0.1-1.5l1,1c0.1,0.1,0.2,0.1,0.3,0.2
		c0.1,0,0.2,0.1,0.3,0.1c0.1,0,0.2,0,0.4-0.1c0.1,0,0.2-0.1,0.2-0.2c0.3-0.3,0.3-0.8,0-1.2l-0.9-0.9l1.2,0.1c0,0,0,0,0,0
		c0,0,0,0,0,0c0,0,0,0,0.1,0c0,0,0,0,0.1,0c0,0,0,0,0,0c0,0,0,0,0.1,0c0,0,0,0,0,0c0,0,0,0,0.1,0c0,0,0,0,0,0c0,0,0,0,0,0
		c0,0,0,0,0,0c0,0,0,0,0-0.1c0,0,0,0,0,0c0,0,0,0,0-0.1c0,0,0,0,0,0c0,0,0-0.1,0-0.1c0-0.3-0.2-0.6-0.5-0.6l-2.6-0.2l-4.7-4.8l4.1,0
		l3.3,3.4c0.1,0.1,0.1,0.1,0.2,0.1c0.1,0,0.2,0,0.2,0l0,0c0,0,0,0,0,0c0.1,0,0.1,0,0.2,0c0,0,0.1,0,0.1-0.1c0,0,0.1,0,0.1-0.1
		c0.2-0.2,0.2-0.6,0-0.9l-2.4-2.5l1.8,0C458.1,531.9,458.2,531.9,458.2,531.9z"/>
	<path class="st6" d="M510.5,529.6c0.3-0.1,0.6-0.3,0.8-0.6c0.1-0.1,0.1-0.3,0.1-0.4c0-0.1,0-0.3-0.1-0.4c-0.1-0.1-0.1-0.2-0.2-0.3
		c-0.1-0.1-0.1-0.1-0.2-0.2c-0.1-0.1-0.2-0.1-0.3-0.1c-0.1,0-0.1,0-0.2,0l-1.8,0l2.5-2.4c0.2-0.2,0.2-0.6,0-0.9c0,0-0.1-0.1-0.1-0.1
		c-0.1-0.1-0.2-0.1-0.3-0.1l0,0c-0.1,0-0.2,0-0.2,0c-0.1,0-0.1,0.1-0.2,0.1l-3.4,3.3l-4.1,0l4.5-4.5l2.6,0.1l0,0h0h0c0,0,0,0,0,0
		c0,0,0,0,0.1,0c0,0,0,0,0.1,0l0,0c0,0,0,0,0.1,0c0,0,0,0,0.1,0c0,0,0,0,0.1,0c0,0,0,0,0,0c0,0,0,0,0,0c0,0,0,0,0,0c0,0,0,0,0,0
		c0,0,0,0,0,0c0,0,0,0,0-0.1c0,0,0,0,0,0c0,0,0,0,0-0.1c0,0,0,0,0,0c0,0,0-0.1,0-0.1c0-0.3-0.2-0.6-0.6-0.6l-1.4,0l1-1
		c0.1-0.1,0.2-0.3,0.2-0.4c0-0.1,0-0.1,0-0.2c0-0.2-0.1-0.4-0.2-0.6c-0.1-0.1-0.3-0.2-0.4-0.2c-0.1,0-0.1,0-0.2,0
		c-0.1,0-0.1,0-0.2,0c-0.2,0-0.3,0.1-0.4,0.2l-0.7,0.7l-0.4,0.4l0-1.3c0-0.3-0.2-0.6-0.6-0.6c0,0,0,0,0,0c0,0,0,0-0.1,0
		c0,0,0,0-0.1,0c0,0,0,0-0.1,0c0,0,0,0,0,0c0,0,0,0-0.1,0c0,0,0,0,0,0c0,0,0,0-0.1,0c0,0,0,0,0,0l0,0c0,0,0,0,0,0c0,0,0,0,0,0
		c0,0,0,0,0,0.1c0,0,0,0,0,0c0,0,0,0,0,0.1c0,0,0,0,0,0c0,0,0,0.1,0,0.1c0,0,0,0,0,0l0,2.5l-4.9,4.8l0-1.4c0,0,0-0.1,0-0.1
		c0,0,0,0,0,0c0,0,0,0,0-0.1c0,0,0,0,0,0c0,0,0,0,0,0c0,0,0,0-0.1,0c0,0,0,0,0,0c0,0-0.1,0-0.1,0c0,0,0,0,0,0c0,0,0,0,0,0
		c0,0,0,0-0.1,0c0,0,0,0,0,0c0,0-0.1,0-0.1,0.1l-1.4,1.4l-0.9,0.9l-1.8,0l0-1.8l0.9-0.8l1.5-1.3c0.1-0.1,0.1-0.1,0.1-0.2
		c0,0,0-0.1,0-0.1c0-0.1-0.1-0.2-0.3-0.2l-1.4,0l4.2-4.1c0.1-0.1,0.1-0.2,0.2-0.3c0-0.1,0.1-0.2,0.1-0.3c0-0.2-0.1-0.4-0.2-0.6
		c-0.3-0.3-0.8-0.3-1.2,0l-3.8,3.7l0-4.1l3.4-3.3c0,0,0.1-0.1,0.1-0.1c0-0.1,0.1-0.1,0.1-0.2c0-0.2,0-0.4-0.2-0.6
		c-0.1-0.1-0.3-0.2-0.4-0.2c0,0-0.1,0-0.1,0c-0.1,0-0.2,0-0.2,0.1c0,0-0.1,0-0.1,0.1l-2.5,2.4l0-1.8c0-0.4-0.2-0.7-0.4-0.9
		c-0.2-0.1-0.4-0.2-0.6-0.2l0,0l0,0c-0.4,0-0.8,0.3-1,0.6c-0.1,0.1-0.1,0.3-0.1,0.4l0,1.8l-2.4-2.5c0,0-0.1-0.1-0.1-0.1
		c-0.1,0-0.1-0.1-0.2-0.1c0,0-0.1,0-0.1,0c-0.1,0-0.2,0-0.2,0c-0.1,0-0.1,0.1-0.2,0.1c0,0-0.1,0.1-0.1,0.1c-0.1,0.2-0.1,0.5,0,0.7
		c0,0,0,0.1,0.1,0.1l3.3,3.4l0,4.1l-3.7-3.8c-0.3-0.3-0.8-0.3-1.2,0c-0.2,0.2-0.2,0.4-0.3,0.6c0,0.1,0,0.2,0.1,0.3
		c0,0.1,0.1,0.2,0.2,0.3l4.1,4.2l-1.4,0c-0.1,0-0.2,0.1-0.3,0.2c0,0,0,0,0,0.1c0,0.1,0,0.2,0.1,0.2l1.4,1.4l0.9,0.9l0,1.8l-1.8,0
		l-0.8-0.9l-1.3-1.5c0,0-0.1,0-0.1-0.1c0,0,0,0,0,0c0,0,0,0-0.1,0c0,0,0,0,0,0c0,0,0,0,0,0c0,0-0.1,0-0.1,0l0,0c0,0,0,0-0.1,0
		c0,0,0,0,0,0c0,0,0,0,0,0c0,0,0,0,0,0.1c0,0,0,0,0,0c0,0,0,0.1,0,0.1l0,1.4l-5.4-5.5l-0.1-2.5c0,0,0-0.1,0-0.1c0,0,0,0,0,0
		c0,0,0,0,0-0.1c0,0,0,0,0,0c0,0,0,0,0-0.1c0,0,0,0,0,0c0,0,0,0,0,0c0,0,0,0,0,0c0,0,0,0,0,0c0,0,0,0,0,0c0,0,0,0-0.1,0c0,0,0,0,0,0
		c0,0,0,0,0,0c0,0,0,0-0.1,0c0,0,0,0,0,0c0,0,0,0,0,0c0,0,0,0-0.1,0c0,0,0,0,0,0c-0.2,0-0.4,0.1-0.5,0.3c-0.1,0.1-0.1,0.2-0.1,0.3
		l0,1.3l-0.1-0.2c-0.1-0.1-0.2-0.1-0.3-0.2c0,0-0.1,0-0.2,0c-0.1,0-0.1,0-0.2,0l0,0c-0.1,0-0.1,0-0.2,0c-0.1,0-0.1,0-0.2,0
		c-0.1,0-0.1,0-0.1,0.1c0,0-0.1,0.1-0.1,0.1c-0.3,0.3-0.3,0.8,0,1.2l0.1,0.1l0.2,0.2l-1.4,0c0,0-0.1,0-0.1,0c-0.1,0-0.2,0.1-0.3,0.2
		c-0.1,0.1-0.2,0.3-0.2,0.4c0,0,0,0.1,0,0.1c0,0,0,0,0,0c0,0,0,0,0,0.1c0,0,0,0,0,0c0,0,0,0,0,0.1c0,0,0,0,0,0c0,0,0,0,0,0
		c0,0,0,0,0,0c0,0,0,0,0,0c0,0,0,0,0,0c0,0,0,0,0.1,0c0,0,0,0,0,0c0,0,0,0,0.1,0c0,0,0,0,0.1,0c0,0,0,0,0.1,0c0,0,0,0,0,0l2.5-0.1
		l2.4,2.5l2.4,2.5l-4.1,0l-3.3-3.4c-0.1-0.1-0.1-0.1-0.2-0.1c-0.1-0.1-0.3-0.1-0.5,0c-0.1,0-0.1,0.1-0.2,0.1c-0.2,0.2-0.2,0.6,0,0.9
		l2.4,2.5l-1.8,0c-0.4,0-0.7,0.2-0.9,0.4c-0.1,0.2-0.2,0.3-0.2,0.6c0,0,0,0,0,0l0,0l0,0c0,0.4,0.2,0.7,0.4,0.9
		c0.2,0.1,0.4,0.2,0.6,0.2l1.8,0l-2.5,2.4c-0.1,0.1-0.1,0.2-0.2,0.3c0,0.2,0,0.4,0.2,0.6c0.1,0.1,0.2,0.1,0.3,0.2c0,0,0.1,0,0.1,0
		c0,0,0.1,0,0.1,0c0.1,0,0.2-0.1,0.3-0.2l3.4-3.3l4.1,0l-2.7,2.6l-1.8,1.7l-2.6,0.2c-0.1,0-0.2,0.1-0.3,0.1
		c-0.1,0.1-0.2,0.2-0.2,0.4c0,0,0,0.1,0,0.1c0,0,0,0.1,0,0.1c0,0,0,0,0,0c0,0,0,0,0,0.1c0,0,0,0,0,0c0,0,0,0,0,0.1c0,0,0,0,0,0
		c0,0,0,0,0,0c0,0,0,0,0,0c0,0,0,0,0,0c0,0,0,0,0,0c0,0,0,0,0.1,0c0,0,0,0,0,0c0,0,0,0,0.1,0c0,0,0,0,0.1,0c0,0,0,0,0,0
		c0,0,0,0,0.1,0l1.2-0.1l-0.6,0.6c0,0-0.1,0.1-0.1,0.1c-0.1,0.1-0.1,0.3-0.1,0.5c0,0.2,0,0.3,0.1,0.5c0,0,0.1,0.1,0.1,0.1
		c0.1,0.1,0.2,0.1,0.3,0.2c0.1,0,0.2,0.1,0.3,0.1c0.2,0,0.4-0.1,0.6-0.2l1-1l0.1,1.5c0,0,0,0.1,0,0.1c0,0,0,0,0,0c0,0,0,0,0,0
		c0,0,0,0,0,0.1c0,0,0,0,0,0c0,0,0,0,0,0.1c0,0,0,0,0,0c0,0,0,0,0,0c0,0,0,0,0,0c0,0,0,0,0,0c0,0,0,0,0,0c0,0,0,0,0,0c0,0,0,0,0.1,0
		c0,0,0,0,0,0c0,0,0,0,0.1,0c0,0,0,0,0.1,0c0,0,0,0,0,0c0,0,0,0,0.1,0l0,0l0,0c0.2,0,0.4-0.1,0.5-0.3c0.1-0.1,0.1-0.2,0.1-0.3
		l-0.2-2.5l4.7-4.6l0,1.4c0,0,0,0.1,0,0.1c0,0,0,0,0,0c0,0,0,0,0,0.1c0,0,0,0,0,0c0,0,0,0,0.1,0.1l0,0c0,0,0.1,0,0.1,0c0,0,0,0,0,0
		c0,0,0,0,0,0c0,0,0,0,0.1,0c0,0,0,0,0,0c0,0,0.1,0,0.1-0.1l1.4-1.4l0.9-0.9l1.8,0l0,1.8l-0.9,0.8l-1.5,1.3c0,0-0.1,0.1-0.1,0.1
		c0,0,0,0.1,0,0.1c0,0,0,0.1,0,0.1c0,0,0,0,0,0.1c0,0.1,0.1,0.1,0.2,0.1l1.4,0l-4.2,4.1c0,0-0.1,0.1-0.1,0.1
		c-0.1,0.1-0.1,0.2-0.1,0.3c0,0.1,0,0.1,0,0.2c0,0.2,0.1,0.4,0.2,0.6c0,0,0.1,0.1,0.1,0.1c0.1,0.1,0.2,0.1,0.3,0.1c0,0,0.1,0,0.1,0
		c0,0,0.1,0,0.1,0c0.1,0,0.2-0.1,0.3-0.1c0,0,0.1-0.1,0.1-0.1l3.8-3.7l0,4.1l-3.4,3.3c0,0-0.1,0.1-0.1,0.1c-0.2,0.2-0.1,0.6,0.1,0.8
		c0.2,0.2,0.6,0.2,0.9,0l2.5-2.4l0,1.8c0,0.3,0.1,0.5,0.3,0.7c0.1,0.1,0.3,0.2,0.5,0.3c0.1,0,0.1,0,0.2,0c0,0,0,0,0,0l0,0l0,0
		c0.4,0,0.7-0.2,0.9-0.4c0.1-0.2,0.2-0.4,0.2-0.6l0-1.8l2.4,2.5c0.2,0.2,0.6,0.2,0.9,0c0.1-0.1,0.2-0.3,0.2-0.4c0,0,0-0.1,0-0.1
		c0-0.1-0.1-0.2-0.2-0.3l-3.3-3.4l0-4.1l1.2,1.3l2.4,2.5c0.1,0.1,0.2,0.1,0.3,0.2c0,0,0.1,0,0.2,0c0.1,0,0.1,0,0.2,0
		c0,0,0.1,0,0.1,0c0.2,0,0.3-0.1,0.4-0.2c0.2-0.2,0.2-0.4,0.3-0.6c0-0.1,0-0.1,0-0.2c0-0.2-0.1-0.3-0.2-0.4l-4.1-4.2l1.4,0
		c0.2,0,0.4-0.3,0.2-0.5l-1.4-1.4l-0.9-0.9l0-1.8l1.8,0l0.8,0.9l1.3,1.5c0,0,0.1,0,0.1,0.1c0,0,0,0,0,0c0,0,0,0,0.1,0c0,0,0,0,0,0
		c0,0,0,0,0,0c0,0,0.1,0,0.1,0l0,0c0,0,0.1,0,0.1,0c0,0,0,0,0,0c0,0,0,0,0-0.1c0,0,0,0,0,0c0,0,0-0.1,0-0.1l0-1.4l5.1,5.2l-0.2,2.5
		c0,0.1,0,0.2,0,0.2c0.1,0.2,0.3,0.4,0.5,0.4c0,0,0,0,0,0c0,0,0,0,0,0c0,0,0,0,0.1,0c0,0,0,0,0.1,0c0,0,0,0,0,0c0,0,0,0,0.1,0
		c0,0,0,0,0,0c0,0,0,0,0.1,0c0,0,0,0,0,0c0,0,0,0,0,0c0,0,0,0,0,0c0,0,0,0,0-0.1c0,0,0,0,0,0c0,0,0,0,0-0.1c0,0,0,0,0,0
		c0,0,0-0.1,0-0.1l0.1-1.5l1,1c0.1,0.1,0.2,0.1,0.3,0.2c0.1,0,0.2,0.1,0.3,0.1c0.1,0,0.2,0,0.4-0.1c0.1,0,0.2-0.1,0.2-0.2
		c0.3-0.3,0.3-0.8,0-1.2l-0.9-0.9l1.2,0.1c0,0,0,0,0,0c0,0,0,0,0,0c0,0,0,0,0.1,0c0,0,0,0,0.1,0c0,0,0,0,0,0c0,0,0,0,0.1,0
		c0,0,0,0,0,0c0,0,0,0,0.1,0c0,0,0,0,0,0c0,0,0,0,0,0c0,0,0,0,0,0c0,0,0,0,0-0.1c0,0,0,0,0,0c0,0,0,0,0-0.1c0,0,0,0,0,0
		c0,0,0-0.1,0-0.1c0-0.3-0.2-0.6-0.5-0.6l-2.6-0.2l-4.7-4.8l4.1,0l3.3,3.4c0.1,0.1,0.1,0.1,0.2,0.1c0.1,0,0.2,0,0.2,0l0,0
		c0,0,0,0,0,0c0.1,0,0.1,0,0.2,0c0,0,0.1,0,0.1-0.1c0,0,0.1,0,0.1-0.1c0.2-0.2,0.2-0.6,0-0.9l-2.4-2.5l1.8,0
		C510.3,529.6,510.4,529.6,510.5,529.6z"/>
	<path class="st6" d="M564.4,533.2c0.3-0.1,0.6-0.3,0.8-0.6c0.1-0.1,0.1-0.3,0.1-0.4c0-0.1,0-0.3-0.1-0.4c-0.1-0.1-0.1-0.2-0.2-0.3
		c-0.1-0.1-0.1-0.1-0.2-0.2c-0.1-0.1-0.2-0.1-0.3-0.1c-0.1,0-0.1,0-0.2,0l-1.8,0l2.5-2.4c0.2-0.2,0.2-0.6,0-0.9c0,0-0.1-0.1-0.1-0.1
		c-0.1-0.1-0.2-0.1-0.3-0.1l0,0c-0.1,0-0.2,0-0.2,0c-0.1,0-0.1,0.1-0.2,0.1l-3.4,3.3l-4.1,0l4.5-4.5l2.6,0.1l0,0h0l0,0c0,0,0,0,0,0
		c0,0,0,0,0.1,0c0,0,0,0,0.1,0l0,0c0,0,0,0,0.1,0c0,0,0,0,0.1,0c0,0,0,0,0.1,0c0,0,0,0,0,0c0,0,0,0,0,0c0,0,0,0,0,0c0,0,0,0,0,0
		c0,0,0,0,0,0c0,0,0,0,0-0.1c0,0,0,0,0,0c0,0,0,0,0-0.1c0,0,0,0,0,0c0,0,0-0.1,0-0.1c0-0.3-0.2-0.6-0.6-0.6l-1.4,0l1-1
		c0.1-0.1,0.2-0.3,0.2-0.4c0-0.1,0-0.1,0-0.2c0-0.2-0.1-0.4-0.2-0.6c-0.1-0.1-0.3-0.2-0.4-0.2c-0.1,0-0.1,0-0.2,0
		c-0.1,0-0.1,0-0.2,0c-0.2,0-0.3,0.1-0.4,0.2l-0.7,0.7l-0.4,0.4l0-1.3c0-0.3-0.3-0.6-0.6-0.6c0,0,0,0,0,0c0,0,0,0-0.1,0
		c0,0,0,0-0.1,0c0,0,0,0-0.1,0c0,0,0,0,0,0c0,0,0,0-0.1,0c0,0,0,0,0,0c0,0,0,0-0.1,0c0,0,0,0,0,0c0,0,0,0,0,0c0,0,0,0,0,0
		c0,0,0,0,0,0c0,0,0,0,0,0.1c0,0,0,0,0,0c0,0,0,0,0,0.1c0,0,0,0,0,0c0,0,0,0.1,0,0.1c0,0,0,0,0,0l0,2.5l-4.9,4.8l0-1.4
		c0,0,0-0.1,0-0.1c0,0,0,0,0,0c0,0,0,0,0-0.1c0,0,0,0,0,0c0,0,0,0,0,0c0,0,0,0-0.1,0c0,0,0,0,0,0c0,0-0.1,0-0.1,0c0,0,0,0,0,0
		c0,0,0,0,0,0c0,0,0,0-0.1,0c0,0,0,0,0,0c0,0-0.1,0-0.1,0.1l-1.4,1.4l-0.9,0.9l-1.8,0l0-1.8l0.9-0.8l1.5-1.3
		c0.1-0.1,0.1-0.1,0.1-0.2c0,0,0-0.1,0-0.1c0-0.1-0.1-0.2-0.3-0.2l-1.4,0l4.2-4.1c0.1-0.1,0.1-0.2,0.2-0.3c0-0.1,0.1-0.2,0.1-0.3
		c0-0.2-0.1-0.4-0.2-0.6c-0.3-0.3-0.8-0.3-1.2,0l-3.8,3.7l0-4.1l3.4-3.3c0,0,0.1-0.1,0.1-0.1c0-0.1,0.1-0.1,0.1-0.2
		c0-0.2,0-0.4-0.2-0.6c-0.1-0.1-0.3-0.2-0.4-0.2c0,0-0.1,0-0.1,0c-0.1,0-0.2,0-0.2,0.1c0,0-0.1,0-0.1,0.1l-2.5,2.4l0-1.8
		c0-0.4-0.2-0.7-0.4-0.9c-0.2-0.1-0.4-0.2-0.6-0.2l0,0v0c-0.4,0-0.8,0.3-1,0.6c-0.1,0.1-0.1,0.3-0.1,0.4l0,1.8l-2.4-2.5
		c0,0-0.1-0.1-0.1-0.1c-0.1,0-0.1-0.1-0.2-0.1c0,0-0.1,0-0.1,0c-0.1,0-0.2,0-0.2,0c-0.1,0-0.1,0.1-0.2,0.1c0,0-0.1,0.1-0.1,0.1
		c-0.1,0.2-0.1,0.5,0,0.7c0,0,0,0.1,0.1,0.1l3.3,3.4l0,4.1l-3.7-3.8c-0.3-0.3-0.8-0.3-1.2,0c-0.2,0.2-0.2,0.4-0.3,0.6
		c0,0.1,0,0.2,0.1,0.3c0,0.1,0.1,0.2,0.2,0.3l4.1,4.2l-1.4,0c-0.1,0-0.2,0.1-0.3,0.2c0,0,0,0,0,0.1c0,0.1,0,0.2,0.1,0.2l1.4,1.4
		l0.9,0.9l0,1.8l-1.8,0l-0.8-0.9l-1.3-1.5c0,0-0.1,0-0.1-0.1c0,0,0,0,0,0c0,0,0,0-0.1,0c0,0,0,0,0,0c0,0,0,0,0,0c0,0-0.1,0-0.1,0
		l0,0c0,0,0,0-0.1,0c0,0,0,0,0,0c0,0,0,0,0,0c0,0,0,0,0,0.1c0,0,0,0,0,0c0,0,0,0.1,0,0.1l0,1.4l-5.4-5.5l-0.1-2.5c0,0,0-0.1,0-0.1
		c0,0,0,0,0,0c0,0,0,0,0-0.1c0,0,0,0,0,0c0,0,0,0,0-0.1c0,0,0,0,0,0c0,0,0,0,0,0c0,0,0,0,0,0c0,0,0,0,0,0c0,0,0,0,0,0c0,0,0,0-0.1,0
		c0,0,0,0,0,0c0,0,0,0,0,0c0,0,0,0-0.1,0c0,0,0,0,0,0c0,0,0,0,0,0c0,0,0,0-0.1,0c0,0,0,0,0,0c-0.2,0-0.4,0.1-0.5,0.3
		c-0.1,0.1-0.1,0.2-0.1,0.3l0,1.3l-0.1-0.2c-0.1-0.1-0.2-0.1-0.3-0.2c-0.1,0-0.1,0-0.2,0c-0.1,0-0.1,0-0.2,0l0,0c-0.1,0-0.1,0-0.2,0
		c-0.1,0-0.1,0-0.2,0c-0.1,0-0.1,0-0.1,0.1c0,0-0.1,0.1-0.1,0.1c-0.3,0.3-0.3,0.8,0,1.2l0.1,0.1l0.2,0.2l-1.4,0c0,0-0.1,0-0.1,0
		c-0.1,0-0.2,0.1-0.3,0.2c-0.1,0.1-0.2,0.3-0.2,0.4c0,0,0,0.1,0,0.1c0,0,0,0,0,0c0,0,0,0,0,0.1c0,0,0,0,0,0c0,0,0,0,0,0.1
		c0,0,0,0,0,0c0,0,0,0,0,0c0,0,0,0,0,0c0,0,0,0,0,0c0,0,0,0,0,0c0,0,0,0,0.1,0c0,0,0,0,0,0c0,0,0,0,0.1,0c0,0,0,0,0.1,0
		c0,0,0,0,0.1,0c0,0,0,0,0,0l2.5-0.1l2.4,2.5l2.4,2.5l-4.1,0l-3.3-3.4c-0.1-0.1-0.1-0.1-0.2-0.1c-0.1-0.1-0.3-0.1-0.5,0
		c-0.1,0-0.1,0.1-0.2,0.1c-0.2,0.2-0.2,0.6,0,0.9l2.4,2.5l-1.8,0c-0.4,0-0.7,0.2-0.9,0.4c-0.1,0.2-0.2,0.3-0.2,0.6c0,0,0,0,0,0l0,0
		l0,0c0,0.4,0.2,0.7,0.4,0.9c0.2,0.1,0.4,0.2,0.6,0.2l1.8,0l-2.5,2.4c-0.1,0.1-0.1,0.2-0.2,0.3c0,0.2,0,0.4,0.2,0.6
		c0.1,0.1,0.2,0.1,0.3,0.2c0,0,0.1,0,0.1,0c0,0,0.1,0,0.1,0c0.1,0,0.2-0.1,0.3-0.2l3.4-3.3l4.1,0l-2.7,2.6l-1.8,1.7l-2.6,0.2
		c-0.1,0-0.2,0.1-0.3,0.1c-0.1,0.1-0.2,0.2-0.2,0.4c0,0,0,0.1,0,0.1c0,0,0,0.1,0,0.1c0,0,0,0,0,0c0,0,0,0,0,0.1c0,0,0,0,0,0
		c0,0,0,0,0,0.1c0,0,0,0,0,0c0,0,0,0,0,0c0,0,0,0,0,0c0,0,0,0,0,0c0,0,0,0,0,0c0,0,0,0,0.1,0c0,0,0,0,0,0c0,0,0,0,0.1,0
		c0,0,0,0,0.1,0c0,0,0,0,0,0c0,0,0,0,0.1,0l1.2-0.1l-0.6,0.6c0,0-0.1,0.1-0.1,0.1c-0.1,0.1-0.1,0.3-0.1,0.5c0,0.2,0,0.3,0.1,0.5
		c0,0,0.1,0.1,0.1,0.1c0.1,0.1,0.2,0.1,0.3,0.2c0.1,0,0.2,0.1,0.3,0.1c0.2,0,0.4-0.1,0.6-0.2l1-1l0.1,1.5c0,0,0,0.1,0,0.1
		c0,0,0,0,0,0c0,0,0,0,0,0c0,0,0,0,0,0.1c0,0,0,0,0,0c0,0,0,0,0,0.1c0,0,0,0,0,0c0,0,0,0,0,0c0,0,0,0,0,0c0,0,0,0,0,0c0,0,0,0,0,0
		c0,0,0,0,0,0c0,0,0,0,0.1,0c0,0,0,0,0,0c0,0,0,0,0.1,0c0,0,0,0,0.1,0c0,0,0,0,0,0c0,0,0,0,0.1,0l0,0l0,0c0.2,0,0.4-0.1,0.5-0.3
		c0.1-0.1,0.1-0.2,0.1-0.3l-0.2-2.5l4.7-4.6l0,1.4c0,0,0,0.1,0,0.1c0,0,0,0,0,0c0,0,0,0,0,0.1c0,0,0,0,0,0c0,0,0,0,0.1,0.1
		c0,0,0,0,0,0c0,0,0.1,0,0.1,0c0,0,0,0,0,0c0,0,0,0,0,0c0,0,0,0,0.1,0c0,0,0,0,0,0c0,0,0.1,0,0.1-0.1l1.4-1.4l0.9-0.9l1.8,0l0,1.8
		l-0.9,0.8l-1.5,1.3c0,0-0.1,0.1-0.1,0.1c0,0,0,0.1,0,0.1c0,0,0,0.1,0,0.1c0,0,0,0,0,0.1c0,0.1,0.1,0.1,0.2,0.1l1.4,0l-4.2,4.1
		c0,0-0.1,0.1-0.1,0.1c-0.1,0.1-0.1,0.2-0.1,0.3c0,0.1,0,0.1,0,0.2c0,0.2,0.1,0.4,0.2,0.6c0,0,0.1,0.1,0.1,0.1
		c0.1,0.1,0.2,0.1,0.3,0.1c0,0,0.1,0,0.1,0s0.1,0,0.1,0c0.1,0,0.2-0.1,0.3-0.1c0,0,0.1-0.1,0.1-0.1l3.8-3.7l0,4.1l-3.4,3.3
		c0,0-0.1,0.1-0.1,0.1c-0.2,0.2-0.1,0.6,0.1,0.8c0.2,0.2,0.6,0.2,0.9,0l2.5-2.4l0,1.8c0,0.3,0.1,0.5,0.3,0.7
		c0.1,0.1,0.3,0.2,0.5,0.3c0.1,0,0.1,0,0.2,0c0,0,0,0,0,0l0,0l0,0c0.4,0,0.7-0.2,0.9-0.4c0.1-0.2,0.2-0.4,0.2-0.6l0-1.8l2.4,2.5
		c0.2,0.2,0.6,0.2,0.9,0c0.1-0.1,0.2-0.3,0.2-0.4c0,0,0-0.1,0-0.1c0-0.1-0.1-0.2-0.2-0.3l-3.3-3.4l0-4.1l1.2,1.3l2.4,2.5
		c0.1,0.1,0.2,0.1,0.3,0.2c0.1,0,0.1,0,0.2,0c0.1,0,0.1,0,0.2,0c0,0,0.1,0,0.1,0c0.2,0,0.3-0.1,0.4-0.2c0.2-0.2,0.2-0.4,0.3-0.6
		c0-0.1,0-0.1,0-0.2c0-0.2-0.1-0.3-0.2-0.4l-4.1-4.2l1.4,0c0.2,0,0.4-0.3,0.2-0.5l-1.4-1.4l-0.9-0.9l0-1.8l1.8,0l0.8,0.9l1.3,1.5
		c0,0,0.1,0,0.1,0.1c0,0,0,0,0,0c0,0,0,0,0.1,0c0,0,0,0,0,0c0,0,0,0,0,0c0,0,0.1,0,0.1,0c0,0,0,0,0,0c0,0,0.1,0,0.1,0c0,0,0,0,0,0
		c0,0,0,0,0-0.1c0,0,0,0,0,0c0,0,0-0.1,0-0.1l0-1.4l5.1,5.2l-0.2,2.5c0,0.1,0,0.2,0,0.2c0.1,0.2,0.3,0.4,0.5,0.4c0,0,0,0,0,0
		c0,0,0,0,0,0c0,0,0,0,0.1,0c0,0,0,0,0.1,0c0,0,0,0,0,0c0,0,0,0,0.1,0c0,0,0,0,0,0c0,0,0,0,0.1,0c0,0,0,0,0,0c0,0,0,0,0,0
		c0,0,0,0,0,0c0,0,0,0,0-0.1c0,0,0,0,0,0c0,0,0,0,0-0.1c0,0,0,0,0,0c0,0,0-0.1,0-0.1l0.1-1.5l1,1c0.1,0.1,0.2,0.1,0.3,0.2
		c0.1,0,0.2,0.1,0.3,0.1c0.1,0,0.2,0,0.4-0.1c0.1,0,0.2-0.1,0.2-0.2c0.3-0.3,0.3-0.8,0-1.2l-0.9-0.9l1.2,0.1c0,0,0,0,0,0
		c0,0,0,0,0,0c0,0,0,0,0.1,0c0,0,0,0,0.1,0c0,0,0,0,0,0c0,0,0,0,0.1,0c0,0,0,0,0,0c0,0,0,0,0.1,0c0,0,0,0,0,0c0,0,0,0,0,0
		c0,0,0,0,0,0c0,0,0,0,0-0.1c0,0,0,0,0,0c0,0,0,0,0-0.1c0,0,0,0,0,0c0,0,0-0.1,0-0.1c0-0.3-0.2-0.6-0.5-0.6l-2.6-0.2l-4.7-4.8l4.1,0
		l3.3,3.4c0.1,0.1,0.1,0.1,0.2,0.1c0.1,0,0.2,0,0.2,0l0,0c0,0,0,0,0,0c0.1,0,0.1,0,0.2,0c0,0,0.1,0,0.1-0.1c0,0,0.1,0,0.1-0.1
		c0.2-0.2,0.2-0.6,0-0.9l-2.4-2.5l1.8,0C564.2,533.2,564.3,533.2,564.4,533.2z"/>
	<path class="st6" d="M619,537.9c0.3-0.1,0.6-0.3,0.8-0.6c0.1-0.1,0.1-0.3,0.1-0.4c0-0.1,0-0.3-0.1-0.4c-0.1-0.1-0.1-0.2-0.2-0.3
		c-0.1-0.1-0.1-0.1-0.2-0.2c-0.1-0.1-0.2-0.1-0.3-0.1c-0.1,0-0.1,0-0.2,0l-1.8,0l2.5-2.4c0.2-0.2,0.2-0.6,0-0.9c0,0-0.1-0.1-0.1-0.1
		c-0.1-0.1-0.2-0.1-0.3-0.1l0,0c-0.1,0-0.2,0-0.2,0c-0.1,0-0.1,0.1-0.2,0.1l-3.4,3.3l-4.1,0l4.5-4.5l2.6,0.1l0,0l0,0h0c0,0,0,0,0,0
		c0,0,0,0,0.1,0c0,0,0,0,0.1,0c0,0,0,0,0,0c0,0,0,0,0.1,0c0,0,0,0,0.1,0c0,0,0,0,0.1,0c0,0,0,0,0,0c0,0,0,0,0,0c0,0,0,0,0,0
		c0,0,0,0,0,0c0,0,0,0,0,0c0,0,0,0,0-0.1c0,0,0,0,0,0c0,0,0,0,0-0.1c0,0,0,0,0,0c0,0,0-0.1,0-0.1c0-0.3-0.2-0.6-0.6-0.6l-1.4,0l1-1
		c0.1-0.1,0.2-0.3,0.2-0.4c0-0.1,0-0.1,0-0.2c0-0.2-0.1-0.4-0.2-0.6c-0.1-0.1-0.3-0.2-0.4-0.2c-0.1,0-0.1,0-0.2,0
		c-0.1,0-0.1,0-0.2,0c-0.2,0-0.3,0.1-0.4,0.2l-0.7,0.7l-0.4,0.4l0-1.3c0-0.3-0.2-0.6-0.6-0.6c0,0,0,0,0,0c0,0,0,0-0.1,0
		c0,0,0,0-0.1,0c0,0,0,0-0.1,0c0,0,0,0,0,0c0,0,0,0-0.1,0c0,0,0,0,0,0c0,0,0,0-0.1,0c0,0,0,0,0,0l0,0c0,0,0,0,0,0.1c0,0,0,0,0,0
		c0,0,0,0,0,0.1c0,0,0,0,0,0c0,0,0,0,0,0.1c0,0,0,0,0,0c0,0,0,0.1,0,0.1c0,0,0,0,0,0l0,2.5l-4.9,4.8l0-1.4c0,0,0-0.1,0-0.1
		c0,0,0,0,0,0c0,0,0,0,0-0.1c0,0,0,0,0,0c0,0,0,0,0,0c0,0,0,0-0.1,0c0,0,0,0,0,0c0,0-0.1,0-0.1,0c0,0,0,0,0,0c0,0,0,0,0,0
		c0,0,0,0-0.1,0c0,0,0,0,0,0c0,0-0.1,0-0.1,0.1l-1.4,1.4l-0.9,0.9l-1.8,0l0-1.8l0.9-0.8l1.5-1.3c0.1-0.1,0.1-0.1,0.1-0.2
		c0,0,0-0.1,0-0.1c0-0.1-0.1-0.2-0.3-0.2l-1.4,0l4.2-4.1c0.1-0.1,0.1-0.2,0.2-0.3c0-0.1,0.1-0.2,0.1-0.3c0-0.2-0.1-0.4-0.2-0.6
		c-0.3-0.3-0.8-0.3-1.2,0l-3.8,3.7l0-4.1l3.4-3.3c0,0,0.1-0.1,0.1-0.1c0-0.1,0.1-0.1,0.1-0.2c0-0.2,0-0.4-0.2-0.6
		c-0.1-0.1-0.3-0.2-0.4-0.2c0,0-0.1,0-0.1,0c-0.1,0-0.2,0-0.2,0.1c0,0-0.1,0-0.1,0.1l-2.5,2.4l0-1.8c0-0.4-0.2-0.7-0.4-0.9
		c-0.2-0.1-0.4-0.2-0.6-0.2l0,0l0,0c-0.4,0-0.8,0.3-1,0.6c-0.1,0.1-0.1,0.3-0.1,0.4l0,1.8l-2.4-2.5c0,0-0.1-0.1-0.1-0.1
		c-0.1,0-0.1-0.1-0.2-0.1c0,0-0.1,0-0.1,0c-0.1,0-0.2,0-0.2,0c-0.1,0-0.1,0.1-0.2,0.1c0,0-0.1,0.1-0.1,0.1c-0.1,0.2-0.1,0.5,0,0.7
		c0,0,0,0.1,0.1,0.1l3.3,3.4l0,4.1l-3.7-3.8c-0.3-0.3-0.8-0.3-1.2,0c-0.2,0.2-0.2,0.4-0.3,0.6c0,0.1,0,0.2,0.1,0.3
		c0,0.1,0.1,0.2,0.2,0.3l4.1,4.2l-1.4,0c-0.1,0-0.2,0.1-0.3,0.2c0,0,0,0,0,0.1c0,0.1,0,0.2,0.1,0.2l1.4,1.4l0.9,0.9l0,1.8l-1.8,0
		l-0.8-0.9l-1.3-1.5c0,0-0.1,0-0.1-0.1c0,0,0,0,0,0c0,0,0,0-0.1,0c0,0,0,0,0,0c0,0,0,0,0,0c0,0-0.1,0-0.1,0c0,0,0,0,0,0
		c0,0,0,0-0.1,0c0,0,0,0,0,0c0,0,0,0,0,0c0,0,0,0,0,0.1c0,0,0,0,0,0c0,0,0,0.1,0,0.1l0,1.4l-5.4-5.5l-0.1-2.5c0,0,0-0.1,0-0.1
		c0,0,0,0,0,0c0,0,0-0.1,0-0.1c0,0,0,0,0,0c0,0,0,0,0-0.1c0,0,0,0,0,0c0,0,0,0,0,0c0,0,0,0,0,0c0,0,0,0,0,0c0,0,0,0,0,0
		c0,0,0,0-0.1,0c0,0,0,0,0,0c0,0,0,0,0,0c0,0,0,0-0.1,0c0,0,0,0,0,0c0,0,0,0,0,0c0,0,0,0-0.1,0c0,0,0,0,0,0c-0.2,0-0.4,0.1-0.5,0.3
		c-0.1,0.1-0.1,0.2-0.1,0.3l0,1.3l-0.1-0.2c-0.1-0.1-0.2-0.1-0.3-0.2c0,0-0.1,0-0.2,0c-0.1,0-0.1,0-0.2,0l0,0c-0.1,0-0.1,0-0.2,0
		c-0.1,0-0.1,0-0.2,0c-0.1,0-0.1,0-0.1,0.1c0,0-0.1,0.1-0.1,0.1c-0.3,0.3-0.3,0.8,0,1.2l0.1,0.1l0.2,0.2l-1.4,0c0,0-0.1,0-0.1,0
		c-0.1,0-0.2,0.1-0.3,0.2c-0.1,0.1-0.2,0.3-0.2,0.4c0,0,0,0.1,0,0.1c0,0,0,0,0,0c0,0,0,0,0,0.1c0,0,0,0,0,0c0,0,0,0,0,0.1
		c0,0,0,0,0,0c0,0,0,0,0,0c0,0,0,0,0,0c0,0,0,0,0,0c0,0,0,0,0,0c0,0,0,0,0.1,0c0,0,0,0,0,0c0,0,0,0,0.1,0c0,0,0,0,0.1,0
		c0,0,0,0,0.1,0c0,0,0,0,0,0l2.5-0.1l2.4,2.5l2.4,2.5l-4.1,0l-3.3-3.4c-0.1-0.1-0.1-0.1-0.2-0.1c-0.1-0.1-0.3-0.1-0.5,0
		c-0.1,0-0.1,0.1-0.2,0.1c-0.2,0.2-0.2,0.6,0,0.9l2.4,2.5l-1.8,0c-0.4,0-0.7,0.2-0.9,0.4c-0.1,0.2-0.2,0.3-0.2,0.6c0,0,0,0,0,0l0,0
		l0,0c0,0.4,0.2,0.7,0.4,0.9c0.2,0.1,0.4,0.2,0.6,0.2l1.8,0l-2.5,2.4c-0.1,0.1-0.1,0.2-0.2,0.3c0,0.2,0,0.4,0.2,0.6
		c0.1,0.1,0.2,0.1,0.3,0.2c0,0,0.1,0,0.1,0c0,0,0.1,0,0.1,0c0.1,0,0.2-0.1,0.3-0.2l3.4-3.3l4.1,0l-2.7,2.6l-1.8,1.7l-2.6,0.2
		c-0.1,0-0.2,0.1-0.3,0.1c-0.1,0.1-0.2,0.2-0.2,0.4c0,0,0,0.1,0,0.1c0,0,0,0.1,0,0.1c0,0,0,0,0,0c0,0,0,0,0,0.1c0,0,0,0,0,0
		c0,0,0,0,0,0.1c0,0,0,0,0,0c0,0,0,0,0,0c0,0,0,0,0,0c0,0,0,0,0,0c0,0,0,0,0,0c0,0,0,0,0.1,0c0,0,0,0,0,0c0,0,0,0,0.1,0
		c0,0,0,0,0.1,0c0,0,0,0,0,0c0,0,0,0,0.1,0l1.2-0.1l-0.6,0.6c0,0-0.1,0.1-0.1,0.1c-0.1,0.1-0.1,0.3-0.1,0.5c0,0.2,0,0.3,0.1,0.5
		c0,0,0.1,0.1,0.1,0.1c0.1,0.1,0.2,0.1,0.3,0.2c0.1,0,0.2,0.1,0.3,0.1c0.2,0,0.4-0.1,0.6-0.2l1-1l0.1,1.5c0,0,0,0.1,0,0.1
		c0,0,0,0,0,0c0,0,0,0,0,0c0,0,0,0,0,0.1c0,0,0,0,0,0c0,0,0,0,0,0.1c0,0,0,0,0,0c0,0,0,0,0,0c0,0,0,0,0,0c0,0,0,0,0,0c0,0,0,0,0,0
		c0,0,0,0,0,0c0,0,0,0,0.1,0c0,0,0,0,0,0c0,0,0,0,0.1,0c0,0,0,0,0.1,0c0,0,0,0,0,0c0,0,0,0,0.1,0l0,0l0,0c0.2,0,0.4-0.1,0.5-0.3
		c0.1-0.1,0.1-0.2,0.1-0.3l-0.2-2.5l4.7-4.6l0,1.4c0,0,0,0.1,0,0.1c0,0,0,0,0,0c0,0,0,0,0,0.1c0,0,0,0,0,0c0,0,0.1,0,0.1,0.1l0,0
		c0,0,0.1,0,0.1,0c0,0,0,0,0,0c0,0,0,0,0,0c0,0,0,0,0.1,0c0,0,0,0,0,0c0,0,0.1,0,0.1-0.1l1.4-1.4l0.9-0.9l1.8,0l0,1.8l-0.9,0.8
		l-1.5,1.3c0,0-0.1,0.1-0.1,0.1c0,0,0,0.1,0,0.1c0,0,0,0.1,0,0.1c0,0,0,0,0,0.1c0,0.1,0.1,0.1,0.2,0.1l1.4,0l-4.2,4.1
		c0,0-0.1,0.1-0.1,0.1c-0.1,0.1-0.1,0.2-0.1,0.3c0,0.1,0,0.1,0,0.2c0,0.2,0.1,0.4,0.2,0.6c0,0,0.1,0.1,0.1,0.1
		c0.1,0.1,0.2,0.1,0.3,0.1c0,0,0.1,0,0.1,0c0,0,0.1,0,0.1,0c0.1,0,0.2-0.1,0.3-0.1c0,0,0.1-0.1,0.1-0.1l3.8-3.7l0,4.1l-3.4,3.3
		c0,0-0.1,0.1-0.1,0.1c-0.2,0.2-0.1,0.6,0.1,0.8c0.2,0.2,0.6,0.2,0.9,0l2.5-2.4l0,1.8c0,0.3,0.1,0.5,0.3,0.7
		c0.1,0.1,0.3,0.2,0.5,0.3c0.1,0,0.1,0,0.2,0c0,0,0,0,0,0l0,0l0,0c0.4,0,0.7-0.2,0.9-0.4c0.1-0.2,0.2-0.4,0.2-0.6l0-1.8l2.4,2.5
		c0.2,0.2,0.6,0.2,0.9,0c0.1-0.1,0.2-0.3,0.2-0.4c0,0,0-0.1,0-0.1c0-0.1-0.1-0.2-0.2-0.3l-3.3-3.4l0-4.1l1.2,1.3l2.4,2.5
		c0.1,0.1,0.2,0.1,0.3,0.2c0,0,0.1,0,0.2,0c0.1,0,0.1,0,0.2,0c0,0,0.1,0,0.1,0c0.2,0,0.3-0.1,0.4-0.2c0.2-0.2,0.2-0.4,0.3-0.6
		c0-0.1,0-0.1,0-0.2c0-0.2-0.1-0.3-0.2-0.4l-4.1-4.2l1.4,0c0.2,0,0.4-0.3,0.2-0.5l-1.4-1.4l-0.9-0.9l0-1.8l1.8,0l0.8,0.9l1.3,1.5
		c0,0,0.1,0,0.1,0.1c0,0,0,0,0,0c0,0,0,0,0.1,0c0,0,0,0,0,0c0,0,0,0,0,0c0,0,0.1,0,0.1,0c0,0,0,0,0,0c0,0,0.1,0,0.1,0c0,0,0,0,0,0
		c0,0,0,0,0-0.1c0,0,0,0,0,0c0,0,0-0.1,0-0.1l0-1.4l5.1,5.2l-0.2,2.5c0,0.1,0,0.2,0,0.2c0.1,0.2,0.3,0.4,0.5,0.4c0,0,0,0,0,0
		c0,0,0,0,0,0c0,0,0,0,0.1,0c0,0,0,0,0.1,0c0,0,0,0,0,0c0,0,0,0,0.1,0c0,0,0,0,0,0c0,0,0,0,0.1,0c0,0,0,0,0,0c0,0,0,0,0,0
		c0,0,0,0,0,0c0,0,0,0,0-0.1c0,0,0,0,0,0c0,0,0,0,0-0.1c0,0,0,0,0,0c0,0,0-0.1,0-0.1l0.1-1.5l1,1c0.1,0.1,0.2,0.1,0.3,0.2
		c0.1,0,0.2,0.1,0.3,0.1c0.1,0,0.2,0,0.4-0.1c0.1,0,0.2-0.1,0.2-0.2c0.3-0.3,0.3-0.8,0-1.2l-0.9-0.9l1.2,0.1c0,0,0,0,0,0
		c0,0,0,0,0,0c0,0,0,0,0.1,0c0,0,0,0,0.1,0c0,0,0,0,0,0c0,0,0,0,0.1,0c0,0,0,0,0,0c0,0,0,0,0.1,0c0,0,0,0,0,0c0,0,0,0,0,0
		c0,0,0,0,0,0c0,0,0,0,0-0.1c0,0,0,0,0,0c0,0,0,0,0-0.1c0,0,0,0,0,0c0,0,0-0.1,0-0.1c0-0.3-0.2-0.6-0.5-0.6l-2.6-0.2l-4.7-4.8l4.1,0
		l3.3,3.4c0.1,0.1,0.1,0.1,0.2,0.1c0.1,0,0.2,0,0.2,0l0,0c0,0,0,0,0,0c0.1,0,0.1,0,0.2,0c0,0,0.1,0,0.1-0.1c0,0,0.1,0,0.1-0.1
		c0.2-0.2,0.2-0.6,0-0.9l-2.4-2.5l1.8,0C618.9,537.9,618.9,537.9,619,537.9z"/>
	<path class="st6" d="M672,543.9c0.3-0.1,0.6-0.3,0.8-0.6c0.1-0.1,0.1-0.3,0.1-0.4c0-0.1,0-0.3-0.1-0.4c-0.1-0.1-0.1-0.2-0.2-0.3
		c-0.1-0.1-0.1-0.1-0.2-0.2c-0.1-0.1-0.2-0.1-0.3-0.1c-0.1,0-0.1,0-0.2,0l-1.8,0l2.5-2.4c0.2-0.2,0.2-0.6,0-0.9c0,0-0.1-0.1-0.1-0.1
		c-0.1-0.1-0.2-0.1-0.3-0.1l0,0c-0.1,0-0.2,0-0.2,0c-0.1,0-0.1,0.1-0.2,0.1l-3.4,3.3l-4.1,0l4.5-4.5l2.6,0.1l0,0l0,0h0c0,0,0,0,0,0
		c0,0,0,0,0.1,0c0,0,0,0,0.1,0c0,0,0,0,0,0c0,0,0,0,0.1,0c0,0,0,0,0.1,0c0,0,0,0,0.1,0c0,0,0,0,0,0c0,0,0,0,0,0c0,0,0,0,0,0
		c0,0,0,0,0,0c0,0,0,0,0,0c0,0,0,0,0-0.1c0,0,0,0,0,0c0,0,0,0,0-0.1c0,0,0,0,0,0c0,0,0-0.1,0-0.1c0-0.3-0.2-0.6-0.6-0.6l-1.4,0l1-1
		c0.1-0.1,0.2-0.3,0.2-0.4c0-0.1,0-0.1,0-0.2c0-0.2-0.1-0.4-0.2-0.6c-0.1-0.1-0.3-0.2-0.4-0.2c-0.1,0-0.1,0-0.2,0
		c-0.1,0-0.1,0-0.2,0c-0.2,0-0.3,0.1-0.4,0.2l-0.7,0.7l-0.4,0.4l0-1.3c0-0.3-0.2-0.6-0.6-0.6h0c0,0,0,0-0.1,0c0,0,0,0-0.1,0
		c0,0,0,0-0.1,0c0,0,0,0,0,0c0,0,0,0-0.1,0c0,0,0,0,0,0c0,0,0,0-0.1,0c0,0,0,0,0,0c0,0,0,0,0,0c0,0,0,0,0,0c0,0,0,0,0,0
		c0,0,0,0,0,0.1c0,0,0,0,0,0c0,0,0,0,0,0.1c0,0,0,0,0,0c0,0,0,0.1,0,0.1c0,0,0,0,0,0l0,2.5l-4.9,4.8l0-1.4c0,0,0-0.1,0-0.1
		c0,0,0,0,0,0c0,0,0,0,0-0.1c0,0,0,0,0,0c0,0,0,0,0,0c0,0,0,0-0.1,0c0,0,0,0,0,0c0,0-0.1,0-0.1,0c0,0,0,0,0,0c0,0,0,0,0,0
		c0,0,0,0-0.1,0c0,0,0,0,0,0c0,0-0.1,0-0.1,0.1l-1.4,1.4l-0.9,0.9l-1.8,0l0-1.8l0.9-0.8l1.5-1.3c0.1-0.1,0.1-0.1,0.1-0.2
		c0,0,0-0.1,0-0.1c0-0.1-0.1-0.2-0.3-0.2l-1.4,0l4.2-4.1c0.1-0.1,0.1-0.2,0.2-0.3c0-0.1,0.1-0.2,0.1-0.3c0-0.2-0.1-0.4-0.2-0.6
		c-0.3-0.3-0.8-0.3-1.2,0l-3.8,3.7l0-4.1l3.4-3.3c0,0,0.1-0.1,0.1-0.1c0-0.1,0.1-0.1,0.1-0.2c0-0.2,0-0.4-0.2-0.6
		c-0.1-0.1-0.3-0.2-0.4-0.2c0,0-0.1,0-0.1,0c-0.1,0-0.2,0-0.2,0.1c0,0-0.1,0-0.1,0.1l-2.5,2.4l0-1.8c0-0.4-0.2-0.7-0.4-0.9
		c-0.2-0.1-0.4-0.2-0.6-0.2l0,0l0,0c-0.4,0-0.8,0.3-1,0.6c-0.1,0.1-0.1,0.3-0.1,0.4l0,1.8l-2.4-2.5c0,0-0.1-0.1-0.1-0.1
		c-0.1,0-0.1-0.1-0.2-0.1c0,0-0.1,0-0.1,0c-0.1,0-0.2,0-0.2,0c-0.1,0-0.1,0.1-0.2,0.1c0,0-0.1,0.1-0.1,0.1c-0.1,0.2-0.1,0.5,0,0.7
		c0,0,0,0.1,0.1,0.1l3.3,3.4l0,4.1l-3.7-3.8c-0.3-0.3-0.8-0.3-1.2,0c-0.2,0.2-0.2,0.4-0.3,0.6c0,0.1,0,0.2,0.1,0.3
		c0,0.1,0.1,0.2,0.2,0.3l4.1,4.2l-1.4,0c-0.1,0-0.2,0.1-0.3,0.2c0,0,0,0,0,0.1c0,0.1,0,0.2,0.1,0.2l1.4,1.4l0.9,0.9l0,1.8l-1.8,0
		l-0.8-0.9l-1.3-1.5c0,0-0.1,0-0.1-0.1c0,0,0,0,0,0c0,0,0,0-0.1,0c0,0,0,0,0,0c0,0,0,0,0,0c0,0-0.1,0-0.1,0c0,0,0,0,0,0
		c0,0,0,0-0.1,0c0,0,0,0,0,0c0,0,0,0,0,0c0,0,0,0,0,0.1c0,0,0,0,0,0c0,0,0,0.1,0,0.1l0,1.4l-5.4-5.5l-0.1-2.5c0,0,0-0.1,0-0.1
		c0,0,0,0,0,0c0,0,0,0,0-0.1c0,0,0,0,0,0c0,0,0,0,0-0.1c0,0,0,0,0,0c0,0,0,0,0,0c0,0,0,0,0,0c0,0,0,0,0,0c0,0,0,0,0,0c0,0,0,0-0.1,0
		c0,0,0,0,0,0c0,0,0,0,0,0c0,0,0,0-0.1,0c0,0,0,0,0,0c0,0,0,0,0,0c0,0,0,0-0.1,0c0,0,0,0,0,0c-0.2,0-0.4,0.1-0.5,0.3
		c-0.1,0.1-0.1,0.2-0.1,0.3l0,1.3l-0.1-0.2c-0.1-0.1-0.2-0.1-0.3-0.2c0,0-0.1,0-0.2,0c-0.1,0-0.1,0-0.2,0l0,0c-0.1,0-0.1,0-0.2,0
		c-0.1,0-0.1,0-0.2,0c-0.1,0-0.1,0-0.1,0.1c0,0-0.1,0.1-0.1,0.1c-0.3,0.3-0.3,0.8,0,1.2l0.1,0.1l0.2,0.2l-1.4,0c0,0-0.1,0-0.1,0
		c-0.1,0-0.2,0.1-0.3,0.2c-0.1,0.1-0.2,0.3-0.2,0.4c0,0,0,0.1,0,0.1c0,0,0,0,0,0c0,0,0,0,0,0.1c0,0,0,0,0,0c0,0,0,0,0,0.1
		c0,0,0,0,0,0c0,0,0,0,0,0c0,0,0,0,0,0c0,0,0,0,0,0c0,0,0,0,0,0c0,0,0,0,0.1,0c0,0,0,0,0,0c0,0,0,0,0.1,0c0,0,0,0,0.1,0
		c0,0,0,0,0.1,0c0,0,0,0,0,0l2.5-0.1l2.4,2.5l2.4,2.5l-4.1,0l-3.3-3.4c-0.1-0.1-0.1-0.1-0.2-0.1c-0.1-0.1-0.3-0.1-0.5,0
		c-0.1,0-0.1,0.1-0.2,0.1c-0.2,0.2-0.2,0.6,0,0.9l2.4,2.5l-1.8,0c-0.4,0-0.7,0.2-0.9,0.4c-0.1,0.2-0.2,0.3-0.2,0.6c0,0,0,0,0,0l0,0
		l0,0c0,0.4,0.2,0.7,0.4,0.9c0.2,0.1,0.4,0.2,0.6,0.2l1.8,0l-2.5,2.4c-0.1,0.1-0.1,0.2-0.2,0.3c0,0.2,0,0.4,0.2,0.6
		c0.1,0.1,0.2,0.1,0.3,0.2c0,0,0.1,0,0.1,0c0,0,0.1,0,0.1,0c0.1,0,0.2-0.1,0.3-0.2l3.4-3.3l4.1,0l-2.7,2.6l-1.8,1.7l-2.6,0.2
		c-0.1,0-0.2,0.1-0.3,0.1c-0.1,0.1-0.2,0.2-0.2,0.4c0,0,0,0.1,0,0.1c0,0,0,0.1,0,0.1c0,0,0,0,0,0c0,0,0,0,0,0.1c0,0,0,0,0,0
		c0,0,0,0,0,0.1c0,0,0,0,0,0c0,0,0,0,0,0c0,0,0,0,0,0c0,0,0,0,0,0c0,0,0,0,0,0c0,0,0,0,0.1,0c0,0,0,0,0,0c0,0,0,0,0.1,0
		c0,0,0,0,0.1,0c0,0,0,0,0,0c0,0,0,0,0.1,0l1.2-0.1l-0.6,0.6c0,0-0.1,0.1-0.1,0.1c-0.1,0.1-0.1,0.3-0.1,0.5c0,0.2,0,0.3,0.1,0.5
		c0,0,0.1,0.1,0.1,0.1c0.1,0.1,0.2,0.1,0.3,0.2c0.1,0,0.2,0.1,0.3,0.1c0.2,0,0.4-0.1,0.6-0.2l1-1l0.1,1.5c0,0,0,0.1,0,0.1
		c0,0,0,0,0,0c0,0,0,0,0,0c0,0,0,0,0,0.1c0,0,0,0,0,0c0,0,0,0,0,0.1c0,0,0,0,0,0c0,0,0,0,0,0c0,0,0,0,0,0c0,0,0,0,0,0c0,0,0,0,0,0
		c0,0,0,0,0,0c0,0,0,0,0.1,0c0,0,0,0,0,0c0,0,0,0,0.1,0c0,0,0,0,0.1,0c0,0,0,0,0,0c0,0,0,0,0.1,0l0,0l0,0c0.2,0,0.4-0.1,0.5-0.3
		c0.1-0.1,0.1-0.2,0.1-0.3l-0.2-2.5l4.7-4.6l0,1.4c0,0,0,0.1,0,0.1c0,0,0,0,0,0c0,0,0,0,0,0.1c0,0,0,0,0,0c0,0,0,0,0.1,0.1
		c0,0,0,0,0,0c0,0,0.1,0,0.1,0c0,0,0,0,0,0c0,0,0,0,0,0c0,0,0,0,0.1,0c0,0,0,0,0,0c0,0,0.1,0,0.1-0.1l1.4-1.4l0.9-0.9l1.8,0l0,1.8
		l-0.9,0.8l-1.5,1.3c0,0-0.1,0.1-0.1,0.1c0,0,0,0.1,0,0.1c0,0,0,0.1,0,0.1s0,0,0,0.1c0,0.1,0.1,0.1,0.2,0.1l1.4,0l-4.2,4.1
		c0,0-0.1,0.1-0.1,0.1c-0.1,0.1-0.1,0.2-0.1,0.3c0,0.1,0,0.1,0,0.2c0,0.2,0.1,0.4,0.2,0.6c0,0,0.1,0.1,0.1,0.1
		c0.1,0.1,0.2,0.1,0.3,0.1c0,0,0.1,0,0.1,0c0,0,0.1,0,0.1,0c0.1,0,0.2-0.1,0.3-0.1c0,0,0.1-0.1,0.1-0.1l3.8-3.7l0,4.1l-3.4,3.3
		c0,0-0.1,0.1-0.1,0.1c-0.2,0.2-0.1,0.6,0.1,0.8c0.2,0.2,0.6,0.2,0.9,0l2.5-2.4l0,1.8c0,0.3,0.1,0.5,0.3,0.7
		c0.1,0.1,0.3,0.2,0.5,0.3c0.1,0,0.1,0,0.2,0c0,0,0,0,0,0l0,0l0,0c0.4,0,0.7-0.2,0.9-0.4c0.1-0.2,0.2-0.4,0.2-0.6l0-1.8l2.4,2.5
		c0.2,0.2,0.6,0.2,0.9,0c0.1-0.1,0.2-0.3,0.2-0.4c0,0,0-0.1,0-0.1c0-0.1-0.1-0.2-0.2-0.3l-3.3-3.4l0-4.1l1.2,1.3l2.4,2.5
		c0.1,0.1,0.2,0.1,0.3,0.2c0.1,0,0.1,0,0.2,0c0.1,0,0.1,0,0.2,0c0,0,0.1,0,0.1,0c0.2,0,0.3-0.1,0.4-0.2c0.2-0.2,0.2-0.4,0.3-0.6
		c0-0.1,0-0.1,0-0.2c0-0.2-0.1-0.3-0.2-0.4l-4.1-4.2l1.4,0c0.2,0,0.4-0.3,0.2-0.5l-1.4-1.4l-0.9-0.9l0-1.8l1.8,0l0.8,0.9l1.3,1.5
		c0,0,0.1,0,0.1,0.1c0,0,0,0,0,0c0,0,0,0,0.1,0c0,0,0,0,0,0c0,0,0,0,0,0c0,0,0.1,0,0.1,0c0,0,0,0,0,0c0,0,0.1,0,0.1,0c0,0,0,0,0,0
		c0,0,0,0,0-0.1c0,0,0,0,0,0c0,0,0-0.1,0-0.1l0-1.4l5.1,5.2l-0.2,2.5c0,0.1,0,0.2,0,0.2c0.1,0.2,0.3,0.4,0.5,0.4c0,0,0,0,0,0
		c0,0,0,0,0,0c0,0,0,0,0.1,0c0,0,0,0,0.1,0c0,0,0,0,0,0c0,0,0,0,0.1,0c0,0,0,0,0,0c0,0,0,0,0.1,0c0,0,0,0,0,0c0,0,0,0,0,0
		c0,0,0,0,0,0c0,0,0,0,0-0.1c0,0,0,0,0,0c0,0,0,0,0-0.1c0,0,0,0,0,0c0,0,0-0.1,0-0.1l0.1-1.5l1,1c0.1,0.1,0.2,0.1,0.3,0.2
		c0.1,0,0.2,0.1,0.3,0.1c0.1,0,0.2,0,0.4-0.1c0.1,0,0.2-0.1,0.2-0.2c0.3-0.3,0.3-0.8,0-1.2l-0.9-0.9l1.2,0.1c0,0,0,0,0,0
		c0,0,0,0,0,0c0,0,0,0,0.1,0c0,0,0,0,0.1,0c0,0,0,0,0,0c0,0,0,0,0.1,0c0,0,0,0,0,0c0,0,0,0,0.1,0c0,0,0,0,0,0c0,0,0,0,0,0
		c0,0,0,0,0,0c0,0,0,0,0-0.1c0,0,0,0,0,0c0,0,0,0,0-0.1c0,0,0,0,0,0c0,0,0-0.1,0-0.1c0-0.3-0.2-0.6-0.5-0.6l-2.6-0.2l-4.7-4.8l4.1,0
		l3.3,3.4c0.1,0.1,0.1,0.1,0.2,0.1c0.1,0,0.2,0,0.2,0l0,0c0,0,0,0,0,0c0.1,0,0.1,0,0.2,0c0,0,0.1,0,0.1-0.1c0,0,0.1,0,0.1-0.1
		c0.2-0.2,0.2-0.6,0-0.9l-2.4-2.5l1.8,0C671.9,543.9,672,543.9,672,543.9z"/>
	<path class="st7" d="M695.5,606.1c0-9.3-0.2-18.7-0.6-28c-212.6-30.3-355.4-7.2-393.6,0.4c-0.4,9.5-0.6,19-0.6,28.4
		C458.6,575.9,639.5,597.9,695.5,606.1z"/>
	<path class="st6" d="M764.3,342.4c-12.1,28.4-37.3,73.7-82.2,99.1v0c15.8,20.2,34,42.9,52.6,66c22-18.1,59.3-53.4,79.8-97.7
		C796.3,383.7,779.4,361.3,764.3,342.4z"/>
	<path class="st6" d="M231.9,342.4c12.1,28.4,37.3,73.7,82.2,99.1v0c-15.8,20.2-34,42.9-52.6,66c-22-18.1-59.3-53.4-79.8-97.7
		C199.9,383.7,216.8,361.3,231.9,342.4z"/>
	<g class="st8">
		<path class="st9" d="M307.7,286.3c21.6-10.6,82.5-34.7,82.5-34.7l107.9,49.3L606,251.6c0,0,60.9,24.1,82.5,34.7
			c0,0,112.3,95.8,239.2,338.5c5.9-5,9.6-8.3,9.6-8.3C806.5,360.1,688.5,259.4,688.5,259.4c-21.6-10.6-82.5-34.7-82.5-34.7
			l-107.9,58l-107.9-58c0,0-60.9,24.1-82.5,34.7c0,0-118,100.7-248.8,357.1c0,0,3.7,3.3,9.6,8.3
			C195.4,382.1,307.7,286.3,307.7,286.3z"/>
	</g>
	<path class="st5" d="M566.4,205.7c-4.5-1.3-9.3-0.1-11.1,4c-8.4,19.4-19.7,32.7-30.1,41.6c-15.3,13.2-39,13.2-54.3,0
		c-10.3-8.9-21.6-22.2-30.1-41.6c-1.8-4.1-6.5-5.3-11.1-4c-10.3,3-27.5,8.5-39.6,19c0,0,6.7,80.2,107.9,83.3
		c101.1-3.2,107.9-83.3,107.9-83.3C593.9,214.2,583.3,210.3,566.4,205.7z"/>
	<path class="st5" d="M937.2,616.5l39.8,51.6c0,0-34.6,39.3-74.2,48.7l-36.6-47.6C866.2,669.1,906.3,627.5,937.2,616.5z"/>
	<path class="st5" d="M59,616.5l-36,49.9c0,0,11.8,35.1,66,49.9l41-47.2C130,669.1,82.4,621.9,59,616.5z"/>
	<path class="st6" d="M336.2,413.6c0.9,3.6-1.3,7.1-4.9,8c-3.6,0.9-7.1-1.3-8-4.9c-0.9-3.6,1.3-7.1,4.9-8
		C331.8,407.8,335.4,410,336.2,413.6z"/>
	<path class="st6" d="M370.7,403.5c0.9,3.6-1.3,7.1-4.9,8c-3.6,0.9-7.1-1.3-8-4.9c-0.9-3.6,1.3-7.1,4.9-8
		C366.3,397.7,369.9,399.9,370.7,403.5z"/>
	<path class="st6" d="M410.9,396.8c0.9,3.6-1.3,7.1-4.9,8c-3.6,0.9-7.1-1.3-8-4.9c-0.9-3.6,1.3-7.1,4.9-8
		C406.5,391.1,410,393.3,410.9,396.8z"/>
	<path class="st6" d="M453,392.1c0.9,3.6-1.3,7.1-4.9,8c-3.6,0.9-7.1-1.3-8-4.9c-0.9-3.6,1.3-7.1,4.9-8
		C448.6,386.4,452.1,388.6,453,392.1z"/>
	<path class="st6" d="M495.4,390.2c0.9,3.6-1.3,7.1-4.9,8c-3.6,0.9-7.1-1.3-8-4.9c-0.9-3.6,1.3-7.1,4.9-8
		C491,384.4,494.6,386.6,495.4,390.2z"/>
	<path class="st6" d="M540.2,392.1c0.9,3.6-1.3,7.1-4.9,8c-3.6,0.9-7.1-1.3-8-4.9c-0.9-3.6,1.3-7.1,4.9-8
		C535.8,386.4,539.4,388.6,540.2,392.1z"/>
	<path class="st6" d="M582.5,398.8c0.9,3.6-1.3,7.1-4.9,8c-3.6,0.9-7.1-1.3-8-4.9c-0.9-3.6,1.3-7.1,4.9-8
		C578.1,393,581.6,395.2,582.5,398.8z"/>
	<path class="st6" d="M623.1,405.4c0.9,3.6-1.3,7.1-4.9,8c-3.6,0.9-7.1-1.3-8-4.9c-0.9-3.6,1.3-7.1,4.9-8
		C618.6,399.6,622.2,401.8,623.1,405.4z"/>
	<path class="st6" d="M667.5,416.7c0.9,3.6-1.3,7.1-4.9,8c-3.6,0.9-7.1-1.3-8-4.9c-0.9-3.6,1.3-7.1,4.9-8
		C663.1,411,666.7,413.2,667.5,416.7z"/>
</g>
</svg>
